<svg xmlns="http://www.w3.org/2000/svg" width="34" height="36"><path d="M71 552.362h34v36H71z" style="fill:none" transform="translate(-71 -552.362)"/><path d="M88 583.362c6.627 0 12-5.372 12-12 0-6.627-5.373-12-12-12s-12 5.373-12 12c0 6.628 5.373 12 12 12" style="opacity:.3;fill:#000;fill-opacity:1;fill-rule:evenodd;stroke:none;stroke-width:1.71428" transform="translate(-71 -552.362)"/><path d="m84.41 566.362-1.41 1.41 3.59 3.59-3.59 3.59 1.41 1.41 3.59-3.59 3.59 3.59 1.41-1.41-3.59-3.59 3.59-3.59-1.41-1.41-3.59 3.59z" style="opacity:.75;fill:#000;fill-opacity:1" transform="translate(-71 -552.362)"/></svg>