<svg width="48" height="48" version="1.0" xmlns="http://www.w3.org/2000/svg">
 <path d="m22.798 6.6656 9.1216 15.863 1.5496-2.6511-2.8445-4.9488 4.7142-7.0253-0.66679-1.2375h-1.7136l-3.8153 5.6836-3.2685-5.6836h-3.0765m-6.5851 10.668-3.1179 5.3342h-8.3761l-0.71879 1.3336 0.71879 1.3336h6.8185l-3.5499 6.0744 1.4816 2.7485 9.8324-16.823h-3.0885m5.1676 14.669 1.5336 2.6671h5.8784l4.2554 6.6679h1.6229l0.70813-1.3149-3.3753-5.3476h6.2558l1.4376-2.6671h-18.318z" fill="#ffffff" opacity=".65" stroke-width="2.0001"/>
 <path d="m13.329 6.6656-0.70813 1.3149 3.3753 5.3476h-6.2558l-1.4376 2.6671h18.318l-1.5336-2.6671h-5.8784l-4.2554-6.6679h-1.6229m25.201 7.1813-9.8324 16.823h3.0885l3.1179-5.3342h8.3761l0.71879-1.3336-0.71879-1.3336h-6.8185l3.5499-6.0744-1.4816-2.7485zm-22.449 11.63-1.5496 2.6511 2.8445 4.9488-4.7142 7.0253 0.66678 1.2375h1.7136l3.8153-5.6836 3.2685 5.6836h3.0765l-9.1216-15.863" fill="#ffffff" stroke-width="2.0001"/>
</svg>
