<svg width="48" height="48" version="1.1" viewBox="0 0 48 48" xmlns="http://www.w3.org/2000/svg">
 <g transform="translate(0 -916.36)">
  <path d="m17.483 921.15c-0.27856 0.9099-0.57428 1.8142-0.87934 2.7151a18.043 18.043 0 0 0-10.679 16.455 18.043 18.043 0 0 0 0.7962 5.281c-0.17111 0.30728-0.34159 0.615-0.51428 0.92119l-0.28192 0.56384 0.43444 0.2241c0.29749 0.13812 0.67179 0.24108 1.1431 0.34415a18.043 18.043 0 0 0 1.5126 2.7531c6.2564 0.5341 13.267 0.79477 19.313-0.0837 4.9416-0.71801 9.2049-2.2055 11.988-4.8295 0.03591-0.0331 0.07058-0.0667 0.10572-0.1002 0.05344-0.0517 0.10628-0.10387 0.15858-0.15638 0.25797-0.25701 0.49562-0.52036 0.71416-0.78739 0.01803-0.0219 0.03663-0.0434 0.05452-0.0655 0.05572-0.0691 0.1091-0.13862 0.16243-0.20814 0.02724-0.0355 0.05581-0.0699 0.0826-0.10572a18.043 18.043 0 0 0 5.64e-4 -4e-3c0.51953-0.69436 0.9274-1.399 1.2615-2.0555l0.28192-0.56382-0.56384-0.56384c-0.17728-0.18669-0.36678-0.36562-0.56384-0.5396a18.043 18.043 0 0 0 0-0.0242 18.043 18.043 0 0 0-18.043-18.043 18.043 18.043 0 0 0-4.9815 0.71634c-0.712-1.0458-1.2741-1.7759-1.5026-1.844zm0.56384 2.5373c1.4437 2.5398 2.7403 4.2544 4.1632 6.5204v5.6e-4c0.47425 0.75522 0.96259 1.5718 1.4751 2.5004 0.20459 2.3676 1.01 14.592 1.0968 15.721-0.60826-0.0497-3.8194-0.30803-7.8821-0.73012-2.2149-0.23014-4.4962-0.49133-6.3487-0.756-0.0018-2.5e-4 -0.0032-3.1e-4 -5e-3 -5.6e-4l-2.9304-0.70259c0.83043-1.4673 1.7831-3.1428 2.7735-4.9479 0.49521-0.90257 0.99962-1.8376 1.5032-2.795 2.5179-4.7869 5.0087-10.136 6.1543-14.811zm7.0479 9.5852c-3e-6 0 7.637 6.0124 10.932 13.395-0.01503 0.0624-0.0281 0.12389-0.04515 0.18722-3.9254 1.8988-7.5379 1.6548-9.7592 1.6414 1.5921-4.0881 1.5896-9.626-1.1277-15.224zm5.3597 3.3841c1.4018 0.38528 2.9945 0.8721 4.5074 1.4085 2.7015 0.9578 5.2121 2.2689 6.6917 3.5994-0.84055 1.5338-2.1146 3.2852-4.2937 4.3802 0.16132-1.578-0.26143-2.987-1.0677-4.248-0.35442-0.63455-0.80017-1.2262-1.3303-1.7581-1.1922-1.1963-2.7586-2.2108-4.4061-3.3131-0.03422-0.023-0.06702-0.0458-0.10132-0.0689zm10.379 10.053c-3.0328 2.6712-7.4465 4.1099-12.331 4.8196-5.8616 0.85162-12.493 0.65734-18.514 0.18061a18.043 18.043 0 0 0 13.978 6.6537 18.043 18.043 0 0 0 16.866-11.654zm-31.764 3.7883a18.043 18.043 0 0 0 0.021477 0.0303c-0.00695-0.0102-0.01452-0.0202-0.021477-0.0303z" fill="#ffffff"/>
 </g>
</svg>
