<svg width="48" height="48" version="1.1" xmlns="http://www.w3.org/2000/svg">
 <g transform="translate(2.7062 5.038)" fill="#ffffff" stroke-width="1.9394">
  <path d="m24.481 2.962-20.327 31.837s6.8499 0.36654 17.332 0c10.43-0.36267 16.06-0.80291 18.091-3.9137 1.5457-2.3661 1.7183-6.1168-4.4742-15.393-4.2337-6.3418-10.622-12.528-10.622-12.528z" opacity=".6"/>
  <path d="m24.471 2.993-22.365 26.296s5.1375 1.2606 14.507 1.9006c9.2703 0.6303 16.072 1.5127 18.457-1.6776 2.048-2.7384 2.1799-5.6514-2.2827-14.107-3.0604-5.8007-8.3161-12.412-8.3161-12.412z" opacity=".45"/>
  <path d="m24.471 2.993-0.038788 0.042667-17.334 27.155c2.3777 0.34909 5.5661 0.72921 9.5147 0.99879 9.2684 0.6303 16.072 1.5127 18.457-1.6776 2.048-2.7384 2.1799-5.6514-2.2827-14.107-3.0604-5.8007-8.3161-12.412-8.3161-12.412z"/>
 </g>
</svg>
