<svg width="32" height="32" version="1.1" viewBox="0 0 32 32" xmlns="http://www.w3.org/2000/svg">
 <path d="m8.9295 7.9298c-0.2555 0-0.511 0.0972-0.70678 0.29298-0.39156 0.39172-0.39156 1.0223 0 1.4141l6.3632 6.3632-6.3632 6.3632c-0.39156 0.39172-0.39156 1.0223 0 1.4141 0.39156 0.39172 1.0224 0.39172 1.4141 0l6.3632-6.3632 6.3632 6.3632c0.39156 0.39172 1.0223 0.39172 1.4141 0 0.39156-0.39172 0.39156-1.0223 0-1.4141l-6.3632-6.3632 6.3632-6.3632c0.39156-0.39172 0.39156-1.0223 0-1.4141-0.39156-0.39172-1.0223-0.39172-1.4141 0l-6.3632 6.3632-6.3632-6.3632c-0.1958-0.1958-0.45128-0.29298-0.70678-0.29298z" fill="#ffffff" stroke-width="2"/>
</svg>
