<svg width="60" height="47" xmlns:xlink="http://www.w3.org/1999/xlink" xmlns="http://www.w3.org/2000/svg"><path id="a" style="fill:#000;fill-opacity:1;stroke-width:27.955;stroke-linecap:round;stroke-linejoin:round;stroke-opacity:.482318;stop-color:#000" d="M0 0h29.88l49.875 47L32.637 3l46.185 44L31.703 3l46.185 44L30.769 3l46.185 44L29.836 3 76.02 47 28.902 3l46.185 44L27.968 3l46.185 44L27.034 3 73.22 47 26.101 3l46.184 44L25.167 3l46.185 44L24.233 3l46.185 44L23.299 3l46.185 44L22.366 3 68.55 47 21.432 3l46.185 44L20.498 3l46.185 44L19.564 3 65.75 47 18.63 3l46.185 44L17.697 3l46.185 44L16.763 3l46.185 44L15.829 3l46.185 44L14.895 3 61.08 47 13.962 3l46.185 44L13.028 3l46.185 44L12.094 3 58.28 47 11.16 3l46.185 44L10.227 3l46.185 44L9.292 3l46.186 44L8.359 3l46.185 44L7.425 3 53.61 47 6.492 3l46.185 44L5.557 3l46.186 44L4.624 3 50.81 47 3.69 3l46.185 44Z"/><use xlink:href="#a" transform="translate(-59.875)" width="100%" height="100%"/></svg>