<svg width="72" height="72" version="1.1" viewBox="0 0 72 72" xmlns="http://www.w3.org/2000/svg">
 <path d="m36 12c-13.255 0-24 10.745-24 24s10.745 24 24 24 24-10.745 24-24-10.745-24-24-24zm10.141 15.855c0.51124 0 1.0223 0.1981 1.4141 0.58984 0.78348 0.78348 0.78348 2.0446 0 2.8282l-12.727 12.727c-0.78348 0.78348-2.0446 0.78348-2.8282 0l-5.6562-5.6562c-0.78348-0.78348-0.78348-2.0446 0-2.8282 0.78348-0.78348 2.0446-0.78348 2.8282 0l4.2422 4.2422 11.312-11.312c0.39174-0.39174 0.90282-0.58984 1.4141-0.58984z" stroke-width="2"/>
</svg>
