<svg width="36" height="36" version="1.1" viewBox="0 0 36 36" xmlns="http://www.w3.org/2000/svg">
 <path d="m18 6c-6.6274 0-12 5.3726-12 12s5.3726 12 12 12 12-5.3726 12-12-5.3726-12-12-12zm5.0703 7.9277c0.25562 0 0.51116 0.099054 0.70703 0.29492 0.39174 0.39174 0.39174 1.0223 0 1.4141l-6.3633 6.3633c-0.39174 0.39174-1.0223 0.39174-1.4141 0l-2.8281-2.8281c-0.39174-0.39174-0.39174-1.0223 0-1.4141 0.39174-0.39174 1.0223-0.39174 1.4141 0l2.1211 2.1211 5.6562-5.6562c0.19587-0.19587 0.45141-0.29492 0.70703-0.29492z"/>
</svg>
