<?xml version="1.0" encoding="UTF-8" standalone="no"?>
<svg
   width="18"
   height="18"
   viewBox="0 0 18 18"
   version="1.1"
   id="svg653"
   sodipodi:docname="small-unchecked-symbolic.svg"
   inkscape:version="1.2.1 (9c6d41e410, 2022-07-14)"
   xmlns:inkscape="http://www.inkscape.org/namespaces/inkscape"
   xmlns:sodipodi="http://sodipodi.sourceforge.net/DTD/sodipodi-0.dtd"
   xmlns="http://www.w3.org/2000/svg"
   xmlns:svg="http://www.w3.org/2000/svg">
  <defs
     id="defs657" />
  <sodipodi:namedview
     id="namedview655"
     pagecolor="#ffffff"
     bordercolor="#666666"
     borderopacity="1.0"
     inkscape:showpageshadow="2"
     inkscape:pageopacity="0.0"
     inkscape:pagecheckerboard="0"
     inkscape:deskcolor="#d1d1d1"
     showgrid="true"
     inkscape:zoom="20.85965"
     inkscape:cx="3.6913371"
     inkscape:cy="7.9339778"
     inkscape:window-width="1920"
     inkscape:window-height="1000"
     inkscape:window-x="0"
     inkscape:window-y="44"
     inkscape:window-maximized="1"
     inkscape:current-layer="svg653">
    <inkscape:grid
       type="xygrid"
       id="grid778" />
  </sodipodi:namedview>
  <path
     id="path776"
     d="M 9 0 A 9 9 0 0 0 0 9 A 9 9 0 0 0 9 18 A 9 9 0 0 0 18 9 A 9 9 0 0 0 9 0 z M 9 2 A 7 7 0 0 1 16 9 A 7 7 0 0 1 9 16 A 7 7 0 0 1 2 9 A 7 7 0 0 1 9 2 z " />
</svg>
