<svg width="32" height="32" version="1.1" viewBox="0 0 32 32" xmlns="http://www.w3.org/2000/svg">
 <path d="m12 12c-2.216 0-4 1.784-4 4v4c0 2.216 1.784 4 4 4h4c2.216 0 4-1.784 4-4v-4c0-2.216-1.784-4-4-4zm0 2h4c1.108 0 2 0.892 2 2v4c0 1.108-0.892 2-2 2h-4c-1.108 0-2-0.892-2-2v-4c0-1.108 0.892-2 2-2z" fill="#ffffff" stroke-width="2"/>
 <path d="m16 8c-2.216 0-4 1.784-4 4h2c0-1.108 0.892-2 2-2h4c1.108 0 2 0.892 2 2v4c0 1.108-0.892 2-2 2v2c2.216 0 4-1.784 4-4v-4c0-2.216-1.784-4-4-4z" fill="#ffffff" opacity=".35" stroke-width="2"/>
</svg>
