<svg width="200" height="150" version="1.1" viewBox="0 0 52.917 39.688" xmlns="http://www.w3.org/2000/svg">
 <g transform="translate(0 -257.31)">
  <g id="thumbnail">
   <rect x="12.171" y="265.25" width="31.75" height="9.525" rx="0" ry="0" fill="#f2f2f2"/>
   <rect x="13.758" y="267.1" width="15.875" height="5.8208" rx="1.5875" ry="1.5875" fill="#000000" opacity=".08"/>
   <path d="m16.33 268.76v2.4562h0.90227c0.28159 0 0.49855-0.0598 0.65112-0.17932 0.15257-0.11955 0.22893-0.28912 0.22893-0.50849 0-0.16673-0.04693-0.30521-0.14004-0.416-0.09199-0.11185-0.22145-0.18553-0.38861-0.22066 0.13911-0.0219 0.24446-0.0776 0.31626-0.16639 0.0718-0.0889 0.108-0.20837 0.108-0.35864 0-0.19415-0.07009-0.34376-0.21032-0.44907-0.14023-0.10529-0.33978-0.15761-0.59893-0.15761zm4.3837 0.0904v0.52297h-0.22686v0.23513h0.22686v1.0004c0 0.23035 0.04556 0.38923 0.13643 0.47698 0.09087 0.0866 0.25559 0.13022 0.49454 0.13022h0.31833v-0.25321h-0.31833c-0.12902 0-0.21472-0.0213-0.25735-0.0641-0.04151-0.0428-0.06201-0.13963-0.06201-0.28991v-1.0004h0.63769v-0.23513h-0.63769v-0.52297zm1.7033 0v0.52297h-0.22738v0.23513h0.22738v1.0004c0 0.23035 0.04504 0.38923 0.13591 0.47698 0.09087 0.0866 0.2561 0.13022 0.49506 0.13022h0.31781v-0.25321h-0.31781c-0.12901 0-0.21472-0.0213-0.25735-0.0641-0.04151-0.0428-0.06253-0.13963-0.06253-0.28991v-1.0004h0.63769v-0.23513h-0.63769v-0.52297zm-5.7469 0.18242h0.50333c0.16604 0 0.28923 0.0306 0.37 0.092 0.0819 0.0614 0.12299 0.15407 0.12299 0.27802 0 0.12504-0.04109 0.21866-0.12299 0.28008-0.08077 0.0603-0.20397 0.0904-0.37 0.0904h-0.50333zm8.185 0.29611c-0.27037 0-0.48244 0.0857-0.63614 0.25683-0.15257 0.17111-0.22893 0.40781-0.22893 0.71055 0 0.30164 0.07635 0.53886 0.22893 0.71107 0.1537 0.17111 0.36577 0.25631 0.63614 0.25631 0.26925 0 0.48089-0.0852 0.63459-0.25631 0.1537-0.17221 0.23048-0.40943 0.23048-0.71107 0-0.30274-0.07678-0.53944-0.23048-0.71055s-0.36534-0.25683-0.63459-0.25683zm2.1239 0c-0.13126 0-0.24733 0.0273-0.3483 0.0822-0.09984 0.0548-0.18692 0.13778-0.26096 0.24857v-0.28629h-0.31109v1.8428h0.31109v-1.0413c0-0.17988 0.04821-0.32212 0.14469-0.42633 0.09648-0.1042 0.22817-0.15606 0.39532-0.15606 0.13911 0 0.2436 0.043 0.31316 0.12971 0.06955 0.0867 0.10439 0.2173 0.10439 0.3917v1.1023h0.30954v-1.1121c0-0.25447-0.05533-0.44721-0.1664-0.57774-0.11106-0.13162-0.27492-0.1974-0.49144-0.1974zm-8.2775 0.0444v1.1157c0 0.25338 0.05576 0.44561 0.16795 0.57723s0.27647 0.1974 0.49299 0.1974c0.13126 0 0.24648-0.0269 0.3452-0.0806 0.09985-0.0548 0.18735-0.13824 0.26252-0.25012v0.28319h0.30954v-1.8428h-0.30954v1.0449c0 0.17988-0.04864 0.32161-0.14624 0.42581-0.09648 0.10421-0.22868 0.15658-0.39584 0.15658-0.13911 0-0.24309-0.0436-0.31264-0.13022-0.06956-0.0878-0.10439-0.21886-0.10439-0.39326v-1.1038zm6.1536 0.21239c0.16491 0 0.29574 0.0639 0.39222 0.19224 0.09648 0.12724 0.14469 0.30004 0.14469 0.51831 0 0.21938-0.04821 0.39263-0.14469 0.51987-0.09648 0.12723-0.22731 0.1912-0.39222 0.1912-0.16716 0-0.29884-0.063-0.39532-0.18914-0.09536-0.12723-0.14314-0.30146-0.14314-0.52193s0.04821-0.39372 0.14469-0.51986c0.09648-0.12725 0.22774-0.19069 0.39377-0.19069zm-8.185 0.45734h0.54519c0.18286 0 0.31815 0.0366 0.40566 0.11007 0.08863 0.0724 0.13281 0.18543 0.13281 0.33899 0 0.15247-0.04418 0.26597-0.13281 0.34055-0.08751 0.0735-0.2228 0.11007-0.40566 0.11007h-0.54519z" fill="#000000" opacity=".65"/>
   <path d="m33.602 267.37c-1.4605 0-2.6458 1.1853-2.6458 2.6458s1.1853 2.6458 2.6458 2.6458 2.6458-1.1853 2.6458-2.6458-1.1853-2.6458-2.6458-2.6458zm1.479 1.2118 0.37312 0.37569-2.3812 2.3812-1.3229-1.3229 0.37312-0.37312 0.9498 0.94724z" fill="#1A73E8"/>
   <path d="m39.952 267.37c-1.4605 0-2.6458 1.1853-2.6458 2.6458s1.1853 2.6458 2.6458 2.6458 2.6458-1.1853 2.6458-2.6458-1.1853-2.6458-2.6458-2.6458zm0 1.8521c0.43815 0 0.79375 0.3556 0.79375 0.79375s-0.3556 0.79375-0.79375 0.79375-0.79375-0.3556-0.79375-0.79375 0.3556-0.79375 0.79375-0.79375z" fill="#1A73E8"/>
  </g>
  <g id="thumbnail-Dark">
   <rect x="12.171" y="279.54" width="31.75" height="9.525" rx="0" ry="0" fill="#2c2c2c"/>
   <rect x="13.758" y="281.39" width="15.875" height="5.8208" rx="1.5875" ry="1.5875" fill="#ffffff" opacity=".1"/>
   <path d="m16.33 283.05v2.4562h0.90227c0.28159 0 0.49855-0.0598 0.65112-0.17932 0.15257-0.11955 0.22893-0.28912 0.22893-0.50849 0-0.16673-0.04693-0.30521-0.14004-0.416-0.09199-0.11185-0.22145-0.18553-0.38861-0.22066 0.13911-0.0219 0.24446-0.0775 0.31626-0.16639 0.0718-0.0889 0.108-0.20837 0.108-0.35864 0-0.19415-0.07009-0.34376-0.21032-0.44907-0.14023-0.10529-0.33978-0.15761-0.59893-0.15761zm4.3837 0.0904v0.52297h-0.22686v0.23513h0.22686v1.0004c0 0.23035 0.04556 0.38923 0.13643 0.47698 0.09087 0.0866 0.25559 0.13022 0.49454 0.13022h0.31833v-0.25321h-0.31833c-0.12902 0-0.21472-0.0213-0.25735-0.0641-0.04151-0.0428-0.06201-0.13963-0.06201-0.28991v-1.0004h0.63769v-0.23513h-0.63769v-0.52297zm1.7033 0v0.52297h-0.22738v0.23513h0.22738v1.0004c0 0.23035 0.04504 0.38923 0.13591 0.47698 0.09087 0.0866 0.2561 0.13022 0.49506 0.13022h0.31781v-0.25321h-0.31781c-0.12901 0-0.21472-0.0213-0.25735-0.0641-0.04151-0.0428-0.06253-0.13963-0.06253-0.28991v-1.0004h0.63769v-0.23513h-0.63769v-0.52297zm-5.7469 0.18242h0.50333c0.16604 0 0.28923 0.0306 0.37 0.092 0.0819 0.0614 0.12299 0.15407 0.12299 0.27802 0 0.12504-0.04109 0.21866-0.12299 0.28008-0.08077 0.0603-0.20397 0.0904-0.37 0.0904h-0.50333zm8.185 0.29611c-0.27037 0-0.48244 0.0857-0.63614 0.25683-0.15257 0.17111-0.22893 0.40781-0.22893 0.71055 0 0.30164 0.07635 0.53886 0.22893 0.71107 0.1537 0.17111 0.36577 0.25631 0.63614 0.25631 0.26925 0 0.48089-0.0852 0.63459-0.25631 0.1537-0.17221 0.23048-0.40943 0.23048-0.71107 0-0.30274-0.07678-0.53944-0.23048-0.71055s-0.36534-0.25683-0.63459-0.25683zm2.1239 0c-0.13126 0-0.24733 0.0273-0.3483 0.0822-0.09984 0.0548-0.18692 0.13778-0.26096 0.24857v-0.28629h-0.31109v1.8428h0.31109v-1.0413c0-0.17988 0.04821-0.32212 0.14469-0.42633 0.09648-0.1042 0.22817-0.15606 0.39532-0.15606 0.13911 0 0.2436 0.043 0.31316 0.12971 0.06955 0.0867 0.10439 0.2173 0.10439 0.3917v1.1023h0.30954v-1.1121c0-0.25447-0.05533-0.44721-0.1664-0.57774-0.11106-0.13162-0.27492-0.1974-0.49144-0.1974zm-8.2775 0.0444v1.1157c0 0.25338 0.05576 0.44561 0.16795 0.57723s0.27647 0.1974 0.49299 0.1974c0.13126 0 0.24648-0.0269 0.3452-0.0806 0.09985-0.0548 0.18735-0.13824 0.26252-0.25012v0.28319h0.30954v-1.8428h-0.30954v1.0449c0 0.17988-0.04864 0.32161-0.14624 0.42581-0.09648 0.10421-0.22868 0.15658-0.39584 0.15658-0.13911 0-0.24309-0.0436-0.31264-0.13022-0.06956-0.0878-0.10439-0.21886-0.10439-0.39326v-1.1038zm6.1536 0.21239c0.16491 0 0.29574 0.0639 0.39222 0.19224 0.09648 0.12724 0.14469 0.30004 0.14469 0.51831 0 0.21938-0.04821 0.39263-0.14469 0.51987-0.09648 0.12723-0.22731 0.1912-0.39222 0.1912-0.16716 0-0.29884-0.063-0.39532-0.18914-0.09536-0.12723-0.14314-0.30146-0.14314-0.52193s0.04821-0.39372 0.14469-0.51986c0.09648-0.12725 0.22774-0.19069 0.39377-0.19069zm-8.185 0.45734h0.54519c0.18286 0 0.31815 0.0366 0.40566 0.11007 0.08863 0.0724 0.13281 0.18543 0.13281 0.33899 0 0.15247-0.04418 0.26597-0.13281 0.34055-0.08751 0.0735-0.2228 0.11007-0.40566 0.11007h-0.54519z" fill="#ffffff" opacity=".65"/>
   <path d="m33.602 281.65c-1.4605 0-2.6458 1.1853-2.6458 2.6458s1.1853 2.6458 2.6458 2.6458 2.6458-1.1853 2.6458-2.6458-1.1853-2.6458-2.6458-2.6458zm1.479 1.2118 0.37312 0.37569-2.3812 2.3812-1.3229-1.3229 0.37312-0.37312 0.9498 0.94724z" fill="#3281EA"/>
   <path d="m39.952 281.65c-1.4605 0-2.6458 1.1853-2.6458 2.6458s1.1853 2.6458 2.6458 2.6458 2.6458-1.1853 2.6458-2.6458-1.1853-2.6458-2.6458-2.6458zm0 1.8521c0.43815 0 0.79375 0.3556 0.79375 0.79375s-0.3556 0.79375-0.79375 0.79375-0.79375-0.3556-0.79375-0.79375 0.3556-0.79375 0.79375-0.79375z" fill="#3281EA"/>
  </g>
 </g>
</svg>
