<?xml version="1.0" encoding="UTF-8" standalone="no"?>
<svg
   xmlns:osb="http://www.openswatchbook.org/uri/2009/osb"
   xmlns:dc="http://purl.org/dc/elements/1.1/"
   xmlns:cc="http://creativecommons.org/ns#"
   xmlns:rdf="http://www.w3.org/1999/02/22-rdf-syntax-ns#"
   xmlns:svg="http://www.w3.org/2000/svg"
   xmlns="http://www.w3.org/2000/svg"
   xmlns:sodipodi="http://sodipodi.sourceforge.net/DTD/sodipodi-0.dtd"
   xmlns:inkscape="http://www.inkscape.org/namespaces/inkscape"
   width="200"
   height="150"
   viewBox="0 0 52.916667 39.6875"
   version="1.1"
   id="svg8"
   inkscape:version="1.0.2 (e86c870879, 2021-01-15)"
   sodipodi:docname="thumbnail.svg"
   inkscape:export-filename="/home/vince/桌面/thumbnail.png"
   inkscape:export-xdpi="96"
   inkscape:export-ydpi="96">
  <defs
     id="defs2">
    <linearGradient
       id="selected_bg_color"
       osb:paint="solid">
      <stop
         style="stop-color:#2e90b3;stop-opacity:1;"
         offset="0"
         id="stop5956" />
    </linearGradient>
    <linearGradient
       id="selected_bg_color-3"
       osb:paint="solid">
      <stop
         style="stop-color:#5294e2;stop-opacity:1;"
         offset="0"
         id="stop5956-6" />
    </linearGradient>
  </defs>
  <sodipodi:namedview
     id="base"
     pagecolor="#ffffff"
     bordercolor="#666666"
     borderopacity="1.0"
     inkscape:pageopacity="0.0"
     inkscape:pageshadow="2"
     inkscape:zoom="0.35355339"
     inkscape:cx="512.20711"
     inkscape:cy="-15.216068"
     inkscape:document-units="mm"
     inkscape:current-layer="layer1"
     showgrid="false"
     units="px"
     inkscape:window-width="1368"
     inkscape:window-height="711"
     inkscape:window-x="0"
     inkscape:window-y="0"
     inkscape:window-maximized="1"
     inkscape:snap-global="true"
     showguides="true"
     inkscape:guide-bbox="true"
     inkscape:document-rotation="0"
     inkscape:snap-bbox="true"
     inkscape:bbox-nodes="true"
     inkscape:snap-nodes="false">
    <inkscape:grid
       type="xygrid"
       id="grid1003" />
  </sodipodi:namedview>
  <metadata
     id="metadata5">
    <rdf:RDF>
      <cc:Work
         rdf:about="">
        <dc:format>image/svg+xml</dc:format>
        <dc:type
           rdf:resource="http://purl.org/dc/dcmitype/StillImage" />
        <dc:title />
      </cc:Work>
    </rdf:RDF>
  </metadata>
  <g
     inkscape:label="Layer 1"
     inkscape:groupmode="layer"
     id="layer1"
     transform="translate(0,-257.31248)">
    <g
       id="thumbnail">
      <rect
         ry="0"
         rx="0"
         y="265.24997"
         x="12.170834"
         height="9.5249987"
         width="31.749998"
         id="rect1231"
         style="fill:#f2f2f2;fill-opacity:1;stroke:#f2f2f2;stroke-width:0;stroke-miterlimit:4;stroke-dasharray:none;stroke-opacity:1" />
      <rect
         ry="1.5874999"
         rx="1.5874999"
         y="267.10205"
         x="13.758333"
         height="5.8208332"
         width="15.875"
         id="rect1295"
         style="opacity:0.08;fill:#000000;fill-opacity:1;stroke:none;stroke-width:0.264582;stroke-miterlimit:4;stroke-dasharray:none;stroke-opacity:1" />
      <path
         id="path1297"
         style="font-style:normal;font-variant:normal;font-weight:normal;font-stretch:normal;font-size:3.40857px;line-height:1.25;font-family:Samanata;-inkscape-font-specification:Samanata;letter-spacing:0px;word-spacing:0px;opacity:0.65;fill:#000000;fill-opacity:1;stroke:none;stroke-width:0.085194"
         d="m 16.329976,268.76062 v 2.45618 h 0.90227 c 0.281588,0 0.49855,-0.0598 0.651123,-0.17932 0.152573,-0.11955 0.228927,-0.28912 0.228927,-0.50849 0,-0.16673 -0.04693,-0.30521 -0.140044,-0.416 -0.09199,-0.11185 -0.221448,-0.18553 -0.388606,-0.22066 0.139111,-0.0219 0.24446,-0.0776 0.31626,-0.16639 0.0718,-0.0889 0.108003,-0.20837 0.108003,-0.35864 0,-0.19415 -0.07009,-0.34376 -0.210323,-0.44907 -0.140233,-0.10529 -0.339779,-0.15761 -0.59893,-0.15761 z m 4.383711,0.0904 v 0.52297 h -0.226859 v 0.23513 h 0.226859 v 1.00045 c 0,0.23035 0.04556,0.38923 0.136426,0.47698 0.09087,0.0866 0.255587,0.13022 0.494543,0.13022 h 0.318327 v -0.25321 h -0.318327 c -0.129017,0 -0.214721,-0.0213 -0.257348,-0.0641 -0.04151,-0.0428 -0.06201,-0.13963 -0.06201,-0.28991 v -1.00045 h 0.637687 v -0.23513 H 21.025298 V 268.851 Z m 1.703255,0 v 0.52297 h -0.227376 v 0.23513 h 0.227376 v 1.00045 c 0,0.23035 0.04504,0.38923 0.135909,0.47698 0.09087,0.0866 0.256103,0.13022 0.495061,0.13022 h 0.31781 v -0.25321 h -0.31781 c -0.129011,0 -0.214715,-0.0213 -0.257349,-0.0641 -0.04151,-0.0428 -0.06253,-0.13963 -0.06253,-0.28991 v -1.00045 h 0.637688 v -0.23513 H 22.728033 V 268.851 Z m -5.746936,0.18242 h 0.503329 c 0.166036,0 0.289229,0.0306 0.370003,0.092 0.0819,0.0614 0.12299,0.15407 0.12299,0.27802 0,0.12504 -0.04109,0.21866 -0.12299,0.28008 -0.08077,0.0603 -0.203967,0.0904 -0.370003,0.0904 h -0.503329 z m 8.18503,0.29611 c -0.270369,0 -0.482441,0.0857 -0.636137,0.25683 -0.152574,0.17111 -0.228926,0.40781 -0.228926,0.71055 0,0.30164 0.07635,0.53886 0.228926,0.71107 0.153696,0.17111 0.365768,0.25631 0.636137,0.25631 0.269248,0 0.480892,-0.0852 0.634587,-0.25631 0.153696,-0.17221 0.230477,-0.40943 0.230477,-0.71107 0,-0.30274 -0.07678,-0.53944 -0.230477,-0.71055 -0.153695,-0.17111 -0.365339,-0.25683 -0.634587,-0.25683 z m 2.123902,0 c -0.131258,0 -0.24733,0.0273 -0.348301,0.0822 -0.09984,0.0548 -0.186922,0.13778 -0.260964,0.24857 v -0.28629 H 26.05858 v 1.84278 h 0.311093 v -1.04128 c 0,-0.17988 0.04821,-0.32212 0.144693,-0.42633 0.09648,-0.1042 0.228166,-0.15606 0.395325,-0.15606 0.139112,0 0.243604,0.043 0.313161,0.12971 0.06955,0.0867 0.104386,0.2173 0.104386,0.3917 v 1.10226 h 0.309541 v -1.11208 c 0,-0.25447 -0.05533,-0.44721 -0.166399,-0.57774 -0.111064,-0.13162 -0.274923,-0.1974 -0.491442,-0.1974 z m -8.277531,0.0444 v 1.11569 c 0,0.25338 0.05576,0.44561 0.167948,0.57723 0.112187,0.13162 0.276473,0.1974 0.492993,0.1974 0.131259,0 0.246475,-0.0269 0.345199,-0.0806 0.09985,-0.0548 0.187351,-0.13824 0.262516,-0.25012 v 0.28319 h 0.309542 v -1.84278 h -0.309542 v 1.0449 c 0,0.17988 -0.04864,0.32161 -0.146244,0.42581 -0.09648,0.10421 -0.228683,0.15658 -0.395842,0.15658 -0.139111,0 -0.243086,-0.0436 -0.312642,-0.13022 -0.06956,-0.0878 -0.104386,-0.21886 -0.104386,-0.39326 v -1.10381 z m 6.153629,0.21239 c 0.164914,0 0.295744,0.0639 0.392225,0.19224 0.09648,0.12724 0.144694,0.30004 0.144694,0.51831 0,0.21938 -0.04821,0.39263 -0.144694,0.51987 -0.09648,0.12723 -0.227311,0.1912 -0.392225,0.1912 -0.167157,0 -0.298844,-0.063 -0.395324,-0.18914 -0.09536,-0.12723 -0.143144,-0.30146 -0.143144,-0.52193 0,-0.22047 0.04821,-0.39372 0.144694,-0.51986 0.09648,-0.12725 0.227739,-0.19069 0.393774,-0.19069 z m -8.18503,0.45734 h 0.545187 c 0.182863,0 0.318154,0.0366 0.40566,0.11007 0.08863,0.0724 0.132808,0.18543 0.132808,0.33899 0,0.15247 -0.04418,0.26597 -0.132808,0.34055 -0.08751,0.0735 -0.222797,0.11007 -0.40566,0.11007 h -0.545187 z" />
      <path
         d="m 33.602083,267.36664 c -1.4605,0 -2.645834,1.18533 -2.645834,2.64583 0,1.4605 1.185334,2.64583 2.645834,2.64583 1.4605,0 2.645833,-1.18533 2.645833,-2.64583 0,-1.4605 -1.185333,-2.64583 -2.645833,-2.64583 z m 1.478967,1.21181 0.373116,0.37569 -2.38125,2.38125 -1.322917,-1.32292 0.373116,-0.37312 0.949801,0.94724 z"
         id="path1330-3"
         style="fill:#1a73e8;fill-opacity:1;stroke-width:0.264583" />
      <path
         d="m 39.952083,267.36664 c -1.4605,0 -2.645833,1.18533 -2.645833,2.64583 0,1.4605 1.185333,2.64583 2.645833,2.64583 1.4605,0 2.645834,-1.18533 2.645834,-2.64583 0,-1.4605 -1.185334,-2.64583 -2.645834,-2.64583 z m 0,1.85208 c 0.43815,0 0.79375,0.3556 0.79375,0.79375 0,0.43815 -0.3556,0.79375 -0.79375,0.79375 -0.43815,0 -0.79375,-0.3556 -0.79375,-0.79375 0,-0.43815 0.3556,-0.79375 0.79375,-0.79375 z"
         id="path1341"
         style="fill:#1a73e8;fill-opacity:1;stroke-width:0.264583" />
    </g>
    <g
       id="thumbnail-dark">
      <rect
         ry="0"
         rx="0"
         y="279.53748"
         x="12.170834"
         height="9.5249987"
         width="31.749998"
         id="rect1384"
         style="fill:#2c2c2c;fill-opacity:1;stroke:#f2f2f2;stroke-width:0;stroke-miterlimit:4;stroke-dasharray:none;stroke-opacity:1" />
      <rect
         ry="1.5874999"
         rx="1.5874999"
         y="281.38956"
         x="13.758333"
         height="5.8208332"
         width="15.875"
         id="rect1386"
         style="opacity:0.1;fill:#ffffff;fill-opacity:1;stroke:none;stroke-width:0.264582;stroke-miterlimit:4;stroke-dasharray:none;stroke-opacity:1" />
      <path
         id="path1388"
         style="font-style:normal;font-variant:normal;font-weight:normal;font-stretch:normal;font-size:3.40857px;line-height:1.25;font-family:Samanata;-inkscape-font-specification:Samanata;letter-spacing:0px;word-spacing:0px;opacity:0.65;fill:#ffffff;fill-opacity:1;stroke:none;stroke-width:0.085194"
         d="m 16.329976,283.04813 v 2.45618 h 0.90227 c 0.281588,0 0.49855,-0.0598 0.651123,-0.17932 0.152573,-0.11955 0.228927,-0.28912 0.228927,-0.50849 0,-0.16673 -0.04693,-0.30521 -0.140044,-0.416 -0.09199,-0.11185 -0.221448,-0.18553 -0.388606,-0.22066 0.139111,-0.0219 0.24446,-0.0775 0.31626,-0.16639 0.0718,-0.0889 0.108003,-0.20837 0.108003,-0.35864 0,-0.19415 -0.07009,-0.34376 -0.210323,-0.44907 -0.140233,-0.10529 -0.339779,-0.15761 -0.59893,-0.15761 z m 4.383711,0.0904 v 0.52297 h -0.226859 v 0.23513 h 0.226859 v 1.00045 c 0,0.23035 0.04556,0.38923 0.136426,0.47698 0.09087,0.0866 0.255587,0.13022 0.494543,0.13022 h 0.318327 v -0.25321 h -0.318327 c -0.129017,0 -0.214721,-0.0213 -0.257348,-0.0641 -0.04151,-0.0428 -0.06201,-0.13963 -0.06201,-0.28991 v -1.00045 h 0.637687 v -0.23513 h -0.637687 v -0.52297 z m 1.703255,0 v 0.52297 h -0.227376 v 0.23513 h 0.227376 v 1.00045 c 0,0.23035 0.04504,0.38923 0.135909,0.47698 0.09087,0.0866 0.256103,0.13022 0.495061,0.13022 h 0.31781 v -0.25321 h -0.31781 c -0.129011,0 -0.214715,-0.0213 -0.257349,-0.0641 -0.04151,-0.0428 -0.06253,-0.13963 -0.06253,-0.28991 v -1.00045 h 0.637688 v -0.23513 h -0.637688 v -0.52297 z m -5.746936,0.18242 h 0.503329 c 0.166036,0 0.289229,0.0306 0.370003,0.092 0.0819,0.0614 0.12299,0.15407 0.12299,0.27802 0,0.12504 -0.04109,0.21866 -0.12299,0.28008 -0.08077,0.0603 -0.203967,0.0904 -0.370003,0.0904 h -0.503329 z m 8.18503,0.29611 c -0.270369,0 -0.482441,0.0857 -0.636137,0.25683 -0.152574,0.17111 -0.228926,0.40781 -0.228926,0.71055 0,0.30164 0.07635,0.53886 0.228926,0.71107 0.153696,0.17111 0.365768,0.25631 0.636137,0.25631 0.269248,0 0.480892,-0.0852 0.634587,-0.25631 0.153696,-0.17221 0.230477,-0.40943 0.230477,-0.71107 0,-0.30274 -0.07678,-0.53944 -0.230477,-0.71055 -0.153695,-0.17111 -0.365339,-0.25683 -0.634587,-0.25683 z m 2.123902,0 c -0.131258,0 -0.24733,0.0273 -0.348301,0.0822 -0.09984,0.0548 -0.186922,0.13778 -0.260964,0.24857 v -0.28629 H 26.05858 v 1.84278 h 0.311093 v -1.04128 c 0,-0.17988 0.04821,-0.32212 0.144693,-0.42633 0.09648,-0.1042 0.228166,-0.15606 0.395325,-0.15606 0.139112,0 0.243604,0.043 0.313161,0.12971 0.06955,0.0867 0.104386,0.2173 0.104386,0.3917 v 1.10226 h 0.309541 v -1.11208 c 0,-0.25447 -0.05533,-0.44721 -0.166399,-0.57774 -0.111064,-0.13162 -0.274923,-0.1974 -0.491442,-0.1974 z m -8.277531,0.0444 v 1.11569 c 0,0.25338 0.05576,0.44561 0.167948,0.57723 0.112187,0.13162 0.276473,0.1974 0.492993,0.1974 0.131259,0 0.246475,-0.0269 0.345199,-0.0806 0.09985,-0.0548 0.187351,-0.13824 0.262516,-0.25012 v 0.28319 h 0.309542 v -1.84278 h -0.309542 v 1.0449 c 0,0.17988 -0.04864,0.32161 -0.146244,0.42581 -0.09648,0.10421 -0.228683,0.15658 -0.395842,0.15658 -0.139111,0 -0.243086,-0.0436 -0.312642,-0.13022 -0.06956,-0.0878 -0.104386,-0.21886 -0.104386,-0.39326 v -1.10381 z m 6.153629,0.21239 c 0.164914,0 0.295744,0.0639 0.392225,0.19224 0.09648,0.12724 0.144694,0.30004 0.144694,0.51831 0,0.21938 -0.04821,0.39263 -0.144694,0.51987 -0.09648,0.12723 -0.227311,0.1912 -0.392225,0.1912 -0.167157,0 -0.298844,-0.063 -0.395324,-0.18914 -0.09536,-0.12723 -0.143144,-0.30146 -0.143144,-0.52193 0,-0.22047 0.04821,-0.39372 0.144694,-0.51986 0.09648,-0.12725 0.227739,-0.19069 0.393774,-0.19069 z m -8.18503,0.45734 h 0.545187 c 0.182863,0 0.318154,0.0366 0.40566,0.11007 0.08863,0.0724 0.132808,0.18543 0.132808,0.33899 0,0.15247 -0.04418,0.26597 -0.132808,0.34055 -0.08751,0.0735 -0.222797,0.11007 -0.40566,0.11007 h -0.545187 z" />
      <path
         d="m 33.602083,281.65414 c -1.4605,0 -2.645834,1.18533 -2.645834,2.64583 0,1.4605 1.185334,2.64583 2.645834,2.64583 1.4605,0 2.645833,-1.18533 2.645833,-2.64583 0,-1.4605 -1.185333,-2.64583 -2.645833,-2.64583 z m 1.478967,1.21181 0.373116,0.37569 -2.38125,2.38125 -1.322917,-1.32292 0.373116,-0.37312 0.949801,0.94724 z"
         id="path1392"
         style="fill:#1a73e8;fill-opacity:1;stroke-width:0.264583" />
      <path
         d="m 39.952083,281.65414 c -1.4605,0 -2.645833,1.18533 -2.645833,2.64583 0,1.4605 1.185333,2.64583 2.645833,2.64583 1.4605,0 2.645834,-1.18533 2.645834,-2.64583 0,-1.4605 -1.185334,-2.64583 -2.645834,-2.64583 z m 0,1.85208 c 0.43815,0 0.79375,0.3556 0.79375,0.79375 0,0.43815 -0.3556,0.79375 -0.79375,0.79375 -0.43815,0 -0.79375,-0.3556 -0.79375,-0.79375 0,-0.43815 0.3556,-0.79375 0.79375,-0.79375 z"
         id="path1394"
         style="fill:#1a73e8;fill-opacity:1;stroke-width:0.264583" />
    </g>
    <g
       id="thumbnail-green"
       transform="translate(47.360417)">
      <rect
         ry="0"
         rx="0"
         y="265.24997"
         x="12.170834"
         height="9.5249987"
         width="31.749998"
         id="rect1510"
         style="fill:#f2f2f2;fill-opacity:1;stroke:#f2f2f2;stroke-width:0;stroke-miterlimit:4;stroke-dasharray:none;stroke-opacity:1" />
      <rect
         ry="1.5874999"
         rx="1.5874999"
         y="267.10205"
         x="13.758333"
         height="5.8208332"
         width="15.875"
         id="rect1512"
         style="opacity:0.08;fill:#000000;fill-opacity:1;stroke:none;stroke-width:0.264582;stroke-miterlimit:4;stroke-dasharray:none;stroke-opacity:1" />
      <path
         id="path1514"
         style="font-style:normal;font-variant:normal;font-weight:normal;font-stretch:normal;font-size:3.40857px;line-height:1.25;font-family:Samanata;-inkscape-font-specification:Samanata;letter-spacing:0px;word-spacing:0px;opacity:0.65;fill:#000000;fill-opacity:1;stroke:none;stroke-width:0.085194"
         d="m 16.329976,268.76062 v 2.45618 h 0.90227 c 0.281588,0 0.49855,-0.0598 0.651123,-0.17932 0.152573,-0.11955 0.228927,-0.28912 0.228927,-0.50849 0,-0.16673 -0.04693,-0.30521 -0.140044,-0.416 -0.09199,-0.11185 -0.221448,-0.18553 -0.388606,-0.22066 0.139111,-0.0219 0.24446,-0.0776 0.31626,-0.16639 0.0718,-0.0889 0.108003,-0.20837 0.108003,-0.35864 0,-0.19415 -0.07009,-0.34376 -0.210323,-0.44907 -0.140233,-0.10529 -0.339779,-0.15761 -0.59893,-0.15761 z m 4.383711,0.0904 v 0.52297 h -0.226859 v 0.23513 h 0.226859 v 1.00045 c 0,0.23035 0.04556,0.38923 0.136426,0.47698 0.09087,0.0866 0.255587,0.13022 0.494543,0.13022 h 0.318327 v -0.25321 h -0.318327 c -0.129017,0 -0.214721,-0.0213 -0.257348,-0.0641 -0.04151,-0.0428 -0.06201,-0.13963 -0.06201,-0.28991 v -1.00045 h 0.637687 v -0.23513 H 21.025298 V 268.851 Z m 1.703255,0 v 0.52297 h -0.227376 v 0.23513 h 0.227376 v 1.00045 c 0,0.23035 0.04504,0.38923 0.135909,0.47698 0.09087,0.0866 0.256103,0.13022 0.495061,0.13022 h 0.31781 v -0.25321 h -0.31781 c -0.129011,0 -0.214715,-0.0213 -0.257349,-0.0641 -0.04151,-0.0428 -0.06253,-0.13963 -0.06253,-0.28991 v -1.00045 h 0.637688 v -0.23513 H 22.728033 V 268.851 Z m -5.746936,0.18242 h 0.503329 c 0.166036,0 0.289229,0.0306 0.370003,0.092 0.0819,0.0614 0.12299,0.15407 0.12299,0.27802 0,0.12504 -0.04109,0.21866 -0.12299,0.28008 -0.08077,0.0603 -0.203967,0.0904 -0.370003,0.0904 h -0.503329 z m 8.18503,0.29611 c -0.270369,0 -0.482441,0.0857 -0.636137,0.25683 -0.152574,0.17111 -0.228926,0.40781 -0.228926,0.71055 0,0.30164 0.07635,0.53886 0.228926,0.71107 0.153696,0.17111 0.365768,0.25631 0.636137,0.25631 0.269248,0 0.480892,-0.0852 0.634587,-0.25631 0.153696,-0.17221 0.230477,-0.40943 0.230477,-0.71107 0,-0.30274 -0.07678,-0.53944 -0.230477,-0.71055 -0.153695,-0.17111 -0.365339,-0.25683 -0.634587,-0.25683 z m 2.123902,0 c -0.131258,0 -0.24733,0.0273 -0.348301,0.0822 -0.09984,0.0548 -0.186922,0.13778 -0.260964,0.24857 v -0.28629 H 26.05858 v 1.84278 h 0.311093 v -1.04128 c 0,-0.17988 0.04821,-0.32212 0.144693,-0.42633 0.09648,-0.1042 0.228166,-0.15606 0.395325,-0.15606 0.139112,0 0.243604,0.043 0.313161,0.12971 0.06955,0.0867 0.104386,0.2173 0.104386,0.3917 v 1.10226 h 0.309541 v -1.11208 c 0,-0.25447 -0.05533,-0.44721 -0.166399,-0.57774 -0.111064,-0.13162 -0.274923,-0.1974 -0.491442,-0.1974 z m -8.277531,0.0444 v 1.11569 c 0,0.25338 0.05576,0.44561 0.167948,0.57723 0.112187,0.13162 0.276473,0.1974 0.492993,0.1974 0.131259,0 0.246475,-0.0269 0.345199,-0.0806 0.09985,-0.0548 0.187351,-0.13824 0.262516,-0.25012 v 0.28319 h 0.309542 v -1.84278 h -0.309542 v 1.0449 c 0,0.17988 -0.04864,0.32161 -0.146244,0.42581 -0.09648,0.10421 -0.228683,0.15658 -0.395842,0.15658 -0.139111,0 -0.243086,-0.0436 -0.312642,-0.13022 -0.06956,-0.0878 -0.104386,-0.21886 -0.104386,-0.39326 v -1.10381 z m 6.153629,0.21239 c 0.164914,0 0.295744,0.0639 0.392225,0.19224 0.09648,0.12724 0.144694,0.30004 0.144694,0.51831 0,0.21938 -0.04821,0.39263 -0.144694,0.51987 -0.09648,0.12723 -0.227311,0.1912 -0.392225,0.1912 -0.167157,0 -0.298844,-0.063 -0.395324,-0.18914 -0.09536,-0.12723 -0.143144,-0.30146 -0.143144,-0.52193 0,-0.22047 0.04821,-0.39372 0.144694,-0.51986 0.09648,-0.12725 0.227739,-0.19069 0.393774,-0.19069 z m -8.18503,0.45734 h 0.545187 c 0.182863,0 0.318154,0.0366 0.40566,0.11007 0.08863,0.0724 0.132808,0.18543 0.132808,0.33899 0,0.15247 -0.04418,0.26597 -0.132808,0.34055 -0.08751,0.0735 -0.222797,0.11007 -0.40566,0.11007 h -0.545187 z" />
      <path
         d="m 33.602083,267.36664 c -1.4605,0 -2.645834,1.18533 -2.645834,2.64583 0,1.4605 1.185334,2.64583 2.645834,2.64583 1.4605,0 2.645833,-1.18533 2.645833,-2.64583 0,-1.4605 -1.185333,-2.64583 -2.645833,-2.64583 z m 1.478967,1.21181 0.373116,0.37569 -2.38125,2.38125 -1.322917,-1.32292 0.373116,-0.37312 0.949801,0.94724 z"
         id="path1516"
         style="fill:#4caf50;fill-opacity:1;stroke-width:0.264583" />
      <path
         d="m 39.952083,267.36664 c -1.4605,0 -2.645833,1.18533 -2.645833,2.64583 0,1.4605 1.185333,2.64583 2.645833,2.64583 1.4605,0 2.645834,-1.18533 2.645834,-2.64583 0,-1.4605 -1.185334,-2.64583 -2.645834,-2.64583 z m 0,1.85208 c 0.43815,0 0.79375,0.3556 0.79375,0.79375 0,0.43815 -0.3556,0.79375 -0.79375,0.79375 -0.43815,0 -0.79375,-0.3556 -0.79375,-0.79375 0,-0.43815 0.3556,-0.79375 0.79375,-0.79375 z"
         id="path1518"
         style="fill:#4caf50;fill-opacity:1;stroke-width:0.264583" />
    </g>
    <g
       id="thumbnail-green-dark"
       transform="translate(47.360417)">
      <rect
         ry="0"
         rx="0"
         y="279.53748"
         x="12.170834"
         height="9.5249987"
         width="31.749998"
         id="rect1522"
         style="fill:#2c2c2c;fill-opacity:1;stroke:#f2f2f2;stroke-width:0;stroke-miterlimit:4;stroke-dasharray:none;stroke-opacity:1" />
      <rect
         ry="1.5874999"
         rx="1.5874999"
         y="281.38956"
         x="13.758333"
         height="5.8208332"
         width="15.875"
         id="rect1524"
         style="opacity:0.1;fill:#ffffff;fill-opacity:1;stroke:none;stroke-width:0.264582;stroke-miterlimit:4;stroke-dasharray:none;stroke-opacity:1" />
      <path
         id="path1526"
         style="font-style:normal;font-variant:normal;font-weight:normal;font-stretch:normal;font-size:3.40857px;line-height:1.25;font-family:Samanata;-inkscape-font-specification:Samanata;letter-spacing:0px;word-spacing:0px;opacity:0.65;fill:#ffffff;fill-opacity:1;stroke:none;stroke-width:0.085194"
         d="m 16.329976,283.04813 v 2.45618 h 0.90227 c 0.281588,0 0.49855,-0.0598 0.651123,-0.17932 0.152573,-0.11955 0.228927,-0.28912 0.228927,-0.50849 0,-0.16673 -0.04693,-0.30521 -0.140044,-0.416 -0.09199,-0.11185 -0.221448,-0.18553 -0.388606,-0.22066 0.139111,-0.0219 0.24446,-0.0775 0.31626,-0.16639 0.0718,-0.0889 0.108003,-0.20837 0.108003,-0.35864 0,-0.19415 -0.07009,-0.34376 -0.210323,-0.44907 -0.140233,-0.10529 -0.339779,-0.15761 -0.59893,-0.15761 z m 4.383711,0.0904 v 0.52297 h -0.226859 v 0.23513 h 0.226859 v 1.00045 c 0,0.23035 0.04556,0.38923 0.136426,0.47698 0.09087,0.0866 0.255587,0.13022 0.494543,0.13022 h 0.318327 v -0.25321 h -0.318327 c -0.129017,0 -0.214721,-0.0213 -0.257348,-0.0641 -0.04151,-0.0428 -0.06201,-0.13963 -0.06201,-0.28991 v -1.00045 h 0.637687 v -0.23513 h -0.637687 v -0.52297 z m 1.703255,0 v 0.52297 h -0.227376 v 0.23513 h 0.227376 v 1.00045 c 0,0.23035 0.04504,0.38923 0.135909,0.47698 0.09087,0.0866 0.256103,0.13022 0.495061,0.13022 h 0.31781 v -0.25321 h -0.31781 c -0.129011,0 -0.214715,-0.0213 -0.257349,-0.0641 -0.04151,-0.0428 -0.06253,-0.13963 -0.06253,-0.28991 v -1.00045 h 0.637688 v -0.23513 h -0.637688 v -0.52297 z m -5.746936,0.18242 h 0.503329 c 0.166036,0 0.289229,0.0306 0.370003,0.092 0.0819,0.0614 0.12299,0.15407 0.12299,0.27802 0,0.12504 -0.04109,0.21866 -0.12299,0.28008 -0.08077,0.0603 -0.203967,0.0904 -0.370003,0.0904 h -0.503329 z m 8.18503,0.29611 c -0.270369,0 -0.482441,0.0857 -0.636137,0.25683 -0.152574,0.17111 -0.228926,0.40781 -0.228926,0.71055 0,0.30164 0.07635,0.53886 0.228926,0.71107 0.153696,0.17111 0.365768,0.25631 0.636137,0.25631 0.269248,0 0.480892,-0.0852 0.634587,-0.25631 0.153696,-0.17221 0.230477,-0.40943 0.230477,-0.71107 0,-0.30274 -0.07678,-0.53944 -0.230477,-0.71055 -0.153695,-0.17111 -0.365339,-0.25683 -0.634587,-0.25683 z m 2.123902,0 c -0.131258,0 -0.24733,0.0273 -0.348301,0.0822 -0.09984,0.0548 -0.186922,0.13778 -0.260964,0.24857 v -0.28629 H 26.05858 v 1.84278 h 0.311093 v -1.04128 c 0,-0.17988 0.04821,-0.32212 0.144693,-0.42633 0.09648,-0.1042 0.228166,-0.15606 0.395325,-0.15606 0.139112,0 0.243604,0.043 0.313161,0.12971 0.06955,0.0867 0.104386,0.2173 0.104386,0.3917 v 1.10226 h 0.309541 v -1.11208 c 0,-0.25447 -0.05533,-0.44721 -0.166399,-0.57774 -0.111064,-0.13162 -0.274923,-0.1974 -0.491442,-0.1974 z m -8.277531,0.0444 v 1.11569 c 0,0.25338 0.05576,0.44561 0.167948,0.57723 0.112187,0.13162 0.276473,0.1974 0.492993,0.1974 0.131259,0 0.246475,-0.0269 0.345199,-0.0806 0.09985,-0.0548 0.187351,-0.13824 0.262516,-0.25012 v 0.28319 h 0.309542 v -1.84278 h -0.309542 v 1.0449 c 0,0.17988 -0.04864,0.32161 -0.146244,0.42581 -0.09648,0.10421 -0.228683,0.15658 -0.395842,0.15658 -0.139111,0 -0.243086,-0.0436 -0.312642,-0.13022 -0.06956,-0.0878 -0.104386,-0.21886 -0.104386,-0.39326 v -1.10381 z m 6.153629,0.21239 c 0.164914,0 0.295744,0.0639 0.392225,0.19224 0.09648,0.12724 0.144694,0.30004 0.144694,0.51831 0,0.21938 -0.04821,0.39263 -0.144694,0.51987 -0.09648,0.12723 -0.227311,0.1912 -0.392225,0.1912 -0.167157,0 -0.298844,-0.063 -0.395324,-0.18914 -0.09536,-0.12723 -0.143144,-0.30146 -0.143144,-0.52193 0,-0.22047 0.04821,-0.39372 0.144694,-0.51986 0.09648,-0.12725 0.227739,-0.19069 0.393774,-0.19069 z m -8.18503,0.45734 h 0.545187 c 0.182863,0 0.318154,0.0366 0.40566,0.11007 0.08863,0.0724 0.132808,0.18543 0.132808,0.33899 0,0.15247 -0.04418,0.26597 -0.132808,0.34055 -0.08751,0.0735 -0.222797,0.11007 -0.40566,0.11007 h -0.545187 z" />
      <path
         d="m 33.602083,281.65414 c -1.4605,0 -2.645834,1.18533 -2.645834,2.64583 0,1.4605 1.185334,2.64583 2.645834,2.64583 1.4605,0 2.645833,-1.18533 2.645833,-2.64583 0,-1.4605 -1.185333,-2.64583 -2.645833,-2.64583 z m 1.478967,1.21181 0.373116,0.37569 -2.38125,2.38125 -1.322917,-1.32292 0.373116,-0.37312 0.949801,0.94724 z"
         id="path1528"
         style="fill:#4caf50;fill-opacity:1;stroke-width:0.264583" />
      <path
         d="m 39.952083,281.65414 c -1.4605,0 -2.645833,1.18533 -2.645833,2.64583 0,1.4605 1.185333,2.64583 2.645833,2.64583 1.4605,0 2.645834,-1.18533 2.645834,-2.64583 0,-1.4605 -1.185334,-2.64583 -2.645834,-2.64583 z m 0,1.85208 c 0.43815,0 0.79375,0.3556 0.79375,0.79375 0,0.43815 -0.3556,0.79375 -0.79375,0.79375 -0.43815,0 -0.79375,-0.3556 -0.79375,-0.79375 0,-0.43815 0.3556,-0.79375 0.79375,-0.79375 z"
         id="path1530"
         style="fill:#4caf50;fill-opacity:1;stroke-width:0.264583" />
    </g>
    <g
       id="thumbnail-yellow"
       transform="translate(89.69375)">
      <rect
         ry="0"
         rx="0"
         y="265.24997"
         x="12.170834"
         height="9.5249987"
         width="31.749998"
         id="rect1534"
         style="fill:#f2f2f2;fill-opacity:1;stroke:#f2f2f2;stroke-width:0;stroke-miterlimit:4;stroke-dasharray:none;stroke-opacity:1" />
      <rect
         ry="1.5874999"
         rx="1.5874999"
         y="267.10205"
         x="13.758333"
         height="5.8208332"
         width="15.875"
         id="rect1536"
         style="opacity:0.08;fill:#000000;fill-opacity:1;stroke:none;stroke-width:0.264582;stroke-miterlimit:4;stroke-dasharray:none;stroke-opacity:1" />
      <path
         id="path1538"
         style="font-style:normal;font-variant:normal;font-weight:normal;font-stretch:normal;font-size:3.40857px;line-height:1.25;font-family:Samanata;-inkscape-font-specification:Samanata;letter-spacing:0px;word-spacing:0px;opacity:0.65;fill:#000000;fill-opacity:1;stroke:none;stroke-width:0.085194"
         d="m 16.329976,268.76062 v 2.45618 h 0.90227 c 0.281588,0 0.49855,-0.0598 0.651123,-0.17932 0.152573,-0.11955 0.228927,-0.28912 0.228927,-0.50849 0,-0.16673 -0.04693,-0.30521 -0.140044,-0.416 -0.09199,-0.11185 -0.221448,-0.18553 -0.388606,-0.22066 0.139111,-0.0219 0.24446,-0.0776 0.31626,-0.16639 0.0718,-0.0889 0.108003,-0.20837 0.108003,-0.35864 0,-0.19415 -0.07009,-0.34376 -0.210323,-0.44907 -0.140233,-0.10529 -0.339779,-0.15761 -0.59893,-0.15761 z m 4.383711,0.0904 v 0.52297 h -0.226859 v 0.23513 h 0.226859 v 1.00045 c 0,0.23035 0.04556,0.38923 0.136426,0.47698 0.09087,0.0866 0.255587,0.13022 0.494543,0.13022 h 0.318327 v -0.25321 h -0.318327 c -0.129017,0 -0.214721,-0.0213 -0.257348,-0.0641 -0.04151,-0.0428 -0.06201,-0.13963 -0.06201,-0.28991 v -1.00045 h 0.637687 v -0.23513 H 21.025298 V 268.851 Z m 1.703255,0 v 0.52297 h -0.227376 v 0.23513 h 0.227376 v 1.00045 c 0,0.23035 0.04504,0.38923 0.135909,0.47698 0.09087,0.0866 0.256103,0.13022 0.495061,0.13022 h 0.31781 v -0.25321 h -0.31781 c -0.129011,0 -0.214715,-0.0213 -0.257349,-0.0641 -0.04151,-0.0428 -0.06253,-0.13963 -0.06253,-0.28991 v -1.00045 h 0.637688 v -0.23513 H 22.728033 V 268.851 Z m -5.746936,0.18242 h 0.503329 c 0.166036,0 0.289229,0.0306 0.370003,0.092 0.0819,0.0614 0.12299,0.15407 0.12299,0.27802 0,0.12504 -0.04109,0.21866 -0.12299,0.28008 -0.08077,0.0603 -0.203967,0.0904 -0.370003,0.0904 h -0.503329 z m 8.18503,0.29611 c -0.270369,0 -0.482441,0.0857 -0.636137,0.25683 -0.152574,0.17111 -0.228926,0.40781 -0.228926,0.71055 0,0.30164 0.07635,0.53886 0.228926,0.71107 0.153696,0.17111 0.365768,0.25631 0.636137,0.25631 0.269248,0 0.480892,-0.0852 0.634587,-0.25631 0.153696,-0.17221 0.230477,-0.40943 0.230477,-0.71107 0,-0.30274 -0.07678,-0.53944 -0.230477,-0.71055 -0.153695,-0.17111 -0.365339,-0.25683 -0.634587,-0.25683 z m 2.123902,0 c -0.131258,0 -0.24733,0.0273 -0.348301,0.0822 -0.09984,0.0548 -0.186922,0.13778 -0.260964,0.24857 v -0.28629 H 26.05858 v 1.84278 h 0.311093 v -1.04128 c 0,-0.17988 0.04821,-0.32212 0.144693,-0.42633 0.09648,-0.1042 0.228166,-0.15606 0.395325,-0.15606 0.139112,0 0.243604,0.043 0.313161,0.12971 0.06955,0.0867 0.104386,0.2173 0.104386,0.3917 v 1.10226 h 0.309541 v -1.11208 c 0,-0.25447 -0.05533,-0.44721 -0.166399,-0.57774 -0.111064,-0.13162 -0.274923,-0.1974 -0.491442,-0.1974 z m -8.277531,0.0444 v 1.11569 c 0,0.25338 0.05576,0.44561 0.167948,0.57723 0.112187,0.13162 0.276473,0.1974 0.492993,0.1974 0.131259,0 0.246475,-0.0269 0.345199,-0.0806 0.09985,-0.0548 0.187351,-0.13824 0.262516,-0.25012 v 0.28319 h 0.309542 v -1.84278 h -0.309542 v 1.0449 c 0,0.17988 -0.04864,0.32161 -0.146244,0.42581 -0.09648,0.10421 -0.228683,0.15658 -0.395842,0.15658 -0.139111,0 -0.243086,-0.0436 -0.312642,-0.13022 -0.06956,-0.0878 -0.104386,-0.21886 -0.104386,-0.39326 v -1.10381 z m 6.153629,0.21239 c 0.164914,0 0.295744,0.0639 0.392225,0.19224 0.09648,0.12724 0.144694,0.30004 0.144694,0.51831 0,0.21938 -0.04821,0.39263 -0.144694,0.51987 -0.09648,0.12723 -0.227311,0.1912 -0.392225,0.1912 -0.167157,0 -0.298844,-0.063 -0.395324,-0.18914 -0.09536,-0.12723 -0.143144,-0.30146 -0.143144,-0.52193 0,-0.22047 0.04821,-0.39372 0.144694,-0.51986 0.09648,-0.12725 0.227739,-0.19069 0.393774,-0.19069 z m -8.18503,0.45734 h 0.545187 c 0.182863,0 0.318154,0.0366 0.40566,0.11007 0.08863,0.0724 0.132808,0.18543 0.132808,0.33899 0,0.15247 -0.04418,0.26597 -0.132808,0.34055 -0.08751,0.0735 -0.222797,0.11007 -0.40566,0.11007 h -0.545187 z" />
      <path
         d="m 33.602083,267.36664 c -1.4605,0 -2.645834,1.18533 -2.645834,2.64583 0,1.4605 1.185334,2.64583 2.645834,2.64583 1.4605,0 2.645833,-1.18533 2.645833,-2.64583 0,-1.4605 -1.185333,-2.64583 -2.645833,-2.64583 z m 1.478967,1.21181 0.373116,0.37569 -2.38125,2.38125 -1.322917,-1.32292 0.373116,-0.37312 0.949801,0.94724 z"
         id="path1540"
         style="fill:#fbc02d;fill-opacity:1;stroke-width:0.264583" />
      <path
         d="m 39.952083,267.36664 c -1.4605,0 -2.645833,1.18533 -2.645833,2.64583 0,1.4605 1.185333,2.64583 2.645833,2.64583 1.4605,0 2.645834,-1.18533 2.645834,-2.64583 0,-1.4605 -1.185334,-2.64583 -2.645834,-2.64583 z m 0,1.85208 c 0.43815,0 0.79375,0.3556 0.79375,0.79375 0,0.43815 -0.3556,0.79375 -0.79375,0.79375 -0.43815,0 -0.79375,-0.3556 -0.79375,-0.79375 0,-0.43815 0.3556,-0.79375 0.79375,-0.79375 z"
         id="path1542"
         style="fill:#fbc02d;fill-opacity:1;stroke-width:0.264583" />
    </g>
    <g
       id="thumbnail-yellow-dark"
       transform="translate(89.69375)">
      <rect
         ry="0"
         rx="0"
         y="279.53748"
         x="12.170834"
         height="9.5249987"
         width="31.749998"
         id="rect1546"
         style="fill:#2c2c2c;fill-opacity:1;stroke:#f2f2f2;stroke-width:0;stroke-miterlimit:4;stroke-dasharray:none;stroke-opacity:1" />
      <rect
         ry="1.5874999"
         rx="1.5874999"
         y="281.38956"
         x="13.758333"
         height="5.8208332"
         width="15.875"
         id="rect1548"
         style="opacity:0.1;fill:#ffffff;fill-opacity:1;stroke:none;stroke-width:0.264582;stroke-miterlimit:4;stroke-dasharray:none;stroke-opacity:1" />
      <path
         id="path1550"
         style="font-style:normal;font-variant:normal;font-weight:normal;font-stretch:normal;font-size:3.40857px;line-height:1.25;font-family:Samanata;-inkscape-font-specification:Samanata;letter-spacing:0px;word-spacing:0px;opacity:0.65;fill:#ffffff;fill-opacity:1;stroke:none;stroke-width:0.085194"
         d="m 16.329976,283.04813 v 2.45618 h 0.90227 c 0.281588,0 0.49855,-0.0598 0.651123,-0.17932 0.152573,-0.11955 0.228927,-0.28912 0.228927,-0.50849 0,-0.16673 -0.04693,-0.30521 -0.140044,-0.416 -0.09199,-0.11185 -0.221448,-0.18553 -0.388606,-0.22066 0.139111,-0.0219 0.24446,-0.0775 0.31626,-0.16639 0.0718,-0.0889 0.108003,-0.20837 0.108003,-0.35864 0,-0.19415 -0.07009,-0.34376 -0.210323,-0.44907 -0.140233,-0.10529 -0.339779,-0.15761 -0.59893,-0.15761 z m 4.383711,0.0904 v 0.52297 h -0.226859 v 0.23513 h 0.226859 v 1.00045 c 0,0.23035 0.04556,0.38923 0.136426,0.47698 0.09087,0.0866 0.255587,0.13022 0.494543,0.13022 h 0.318327 v -0.25321 h -0.318327 c -0.129017,0 -0.214721,-0.0213 -0.257348,-0.0641 -0.04151,-0.0428 -0.06201,-0.13963 -0.06201,-0.28991 v -1.00045 h 0.637687 v -0.23513 h -0.637687 v -0.52297 z m 1.703255,0 v 0.52297 h -0.227376 v 0.23513 h 0.227376 v 1.00045 c 0,0.23035 0.04504,0.38923 0.135909,0.47698 0.09087,0.0866 0.256103,0.13022 0.495061,0.13022 h 0.31781 v -0.25321 h -0.31781 c -0.129011,0 -0.214715,-0.0213 -0.257349,-0.0641 -0.04151,-0.0428 -0.06253,-0.13963 -0.06253,-0.28991 v -1.00045 h 0.637688 v -0.23513 h -0.637688 v -0.52297 z m -5.746936,0.18242 h 0.503329 c 0.166036,0 0.289229,0.0306 0.370003,0.092 0.0819,0.0614 0.12299,0.15407 0.12299,0.27802 0,0.12504 -0.04109,0.21866 -0.12299,0.28008 -0.08077,0.0603 -0.203967,0.0904 -0.370003,0.0904 h -0.503329 z m 8.18503,0.29611 c -0.270369,0 -0.482441,0.0857 -0.636137,0.25683 -0.152574,0.17111 -0.228926,0.40781 -0.228926,0.71055 0,0.30164 0.07635,0.53886 0.228926,0.71107 0.153696,0.17111 0.365768,0.25631 0.636137,0.25631 0.269248,0 0.480892,-0.0852 0.634587,-0.25631 0.153696,-0.17221 0.230477,-0.40943 0.230477,-0.71107 0,-0.30274 -0.07678,-0.53944 -0.230477,-0.71055 -0.153695,-0.17111 -0.365339,-0.25683 -0.634587,-0.25683 z m 2.123902,0 c -0.131258,0 -0.24733,0.0273 -0.348301,0.0822 -0.09984,0.0548 -0.186922,0.13778 -0.260964,0.24857 v -0.28629 H 26.05858 v 1.84278 h 0.311093 v -1.04128 c 0,-0.17988 0.04821,-0.32212 0.144693,-0.42633 0.09648,-0.1042 0.228166,-0.15606 0.395325,-0.15606 0.139112,0 0.243604,0.043 0.313161,0.12971 0.06955,0.0867 0.104386,0.2173 0.104386,0.3917 v 1.10226 h 0.309541 v -1.11208 c 0,-0.25447 -0.05533,-0.44721 -0.166399,-0.57774 -0.111064,-0.13162 -0.274923,-0.1974 -0.491442,-0.1974 z m -8.277531,0.0444 v 1.11569 c 0,0.25338 0.05576,0.44561 0.167948,0.57723 0.112187,0.13162 0.276473,0.1974 0.492993,0.1974 0.131259,0 0.246475,-0.0269 0.345199,-0.0806 0.09985,-0.0548 0.187351,-0.13824 0.262516,-0.25012 v 0.28319 h 0.309542 v -1.84278 h -0.309542 v 1.0449 c 0,0.17988 -0.04864,0.32161 -0.146244,0.42581 -0.09648,0.10421 -0.228683,0.15658 -0.395842,0.15658 -0.139111,0 -0.243086,-0.0436 -0.312642,-0.13022 -0.06956,-0.0878 -0.104386,-0.21886 -0.104386,-0.39326 v -1.10381 z m 6.153629,0.21239 c 0.164914,0 0.295744,0.0639 0.392225,0.19224 0.09648,0.12724 0.144694,0.30004 0.144694,0.51831 0,0.21938 -0.04821,0.39263 -0.144694,0.51987 -0.09648,0.12723 -0.227311,0.1912 -0.392225,0.1912 -0.167157,0 -0.298844,-0.063 -0.395324,-0.18914 -0.09536,-0.12723 -0.143144,-0.30146 -0.143144,-0.52193 0,-0.22047 0.04821,-0.39372 0.144694,-0.51986 0.09648,-0.12725 0.227739,-0.19069 0.393774,-0.19069 z m -8.18503,0.45734 h 0.545187 c 0.182863,0 0.318154,0.0366 0.40566,0.11007 0.08863,0.0724 0.132808,0.18543 0.132808,0.33899 0,0.15247 -0.04418,0.26597 -0.132808,0.34055 -0.08751,0.0735 -0.222797,0.11007 -0.40566,0.11007 h -0.545187 z" />
      <path
         d="m 33.602083,281.65414 c -1.4605,0 -2.645834,1.18533 -2.645834,2.64583 0,1.4605 1.185334,2.64583 2.645834,2.64583 1.4605,0 2.645833,-1.18533 2.645833,-2.64583 0,-1.4605 -1.185333,-2.64583 -2.645833,-2.64583 z m 1.478967,1.21181 0.373116,0.37569 -2.38125,2.38125 -1.322917,-1.32292 0.373116,-0.37312 0.949801,0.94724 z"
         id="path1552"
         style="fill:#fbc02d;fill-opacity:1;stroke-width:0.264583" />
      <path
         d="m 39.952083,281.65414 c -1.4605,0 -2.645833,1.18533 -2.645833,2.64583 0,1.4605 1.185333,2.64583 2.645833,2.64583 1.4605,0 2.645834,-1.18533 2.645834,-2.64583 0,-1.4605 -1.185334,-2.64583 -2.645834,-2.64583 z m 0,1.85208 c 0.43815,0 0.79375,0.3556 0.79375,0.79375 0,0.43815 -0.3556,0.79375 -0.79375,0.79375 -0.43815,0 -0.79375,-0.3556 -0.79375,-0.79375 0,-0.43815 0.3556,-0.79375 0.79375,-0.79375 z"
         id="path1554"
         style="fill:#fbc02d;fill-opacity:1;stroke-width:0.264583" />
    </g>
    <g
       id="thumbnail-grey"
       transform="translate(132.02708)">
      <rect
         ry="0"
         rx="0"
         y="265.24997"
         x="12.170834"
         height="9.5249987"
         width="31.749998"
         id="rect1558"
         style="fill:#f2f2f2;fill-opacity:1;stroke:#f2f2f2;stroke-width:0;stroke-miterlimit:4;stroke-dasharray:none;stroke-opacity:1" />
      <rect
         ry="1.5874999"
         rx="1.5874999"
         y="267.10205"
         x="13.758333"
         height="5.8208332"
         width="15.875"
         id="rect1560"
         style="opacity:0.08;fill:#000000;fill-opacity:1;stroke:none;stroke-width:0.264582;stroke-miterlimit:4;stroke-dasharray:none;stroke-opacity:1" />
      <path
         id="path1562"
         style="font-style:normal;font-variant:normal;font-weight:normal;font-stretch:normal;font-size:3.40857px;line-height:1.25;font-family:Samanata;-inkscape-font-specification:Samanata;letter-spacing:0px;word-spacing:0px;opacity:0.65;fill:#000000;fill-opacity:1;stroke:none;stroke-width:0.085194"
         d="m 16.329976,268.76062 v 2.45618 h 0.90227 c 0.281588,0 0.49855,-0.0598 0.651123,-0.17932 0.152573,-0.11955 0.228927,-0.28912 0.228927,-0.50849 0,-0.16673 -0.04693,-0.30521 -0.140044,-0.416 -0.09199,-0.11185 -0.221448,-0.18553 -0.388606,-0.22066 0.139111,-0.0219 0.24446,-0.0776 0.31626,-0.16639 0.0718,-0.0889 0.108003,-0.20837 0.108003,-0.35864 0,-0.19415 -0.07009,-0.34376 -0.210323,-0.44907 -0.140233,-0.10529 -0.339779,-0.15761 -0.59893,-0.15761 z m 4.383711,0.0904 v 0.52297 h -0.226859 v 0.23513 h 0.226859 v 1.00045 c 0,0.23035 0.04556,0.38923 0.136426,0.47698 0.09087,0.0866 0.255587,0.13022 0.494543,0.13022 h 0.318327 v -0.25321 h -0.318327 c -0.129017,0 -0.214721,-0.0213 -0.257348,-0.0641 -0.04151,-0.0428 -0.06201,-0.13963 -0.06201,-0.28991 v -1.00045 h 0.637687 v -0.23513 H 21.025298 V 268.851 Z m 1.703255,0 v 0.52297 h -0.227376 v 0.23513 h 0.227376 v 1.00045 c 0,0.23035 0.04504,0.38923 0.135909,0.47698 0.09087,0.0866 0.256103,0.13022 0.495061,0.13022 h 0.31781 v -0.25321 h -0.31781 c -0.129011,0 -0.214715,-0.0213 -0.257349,-0.0641 -0.04151,-0.0428 -0.06253,-0.13963 -0.06253,-0.28991 v -1.00045 h 0.637688 v -0.23513 H 22.728033 V 268.851 Z m -5.746936,0.18242 h 0.503329 c 0.166036,0 0.289229,0.0306 0.370003,0.092 0.0819,0.0614 0.12299,0.15407 0.12299,0.27802 0,0.12504 -0.04109,0.21866 -0.12299,0.28008 -0.08077,0.0603 -0.203967,0.0904 -0.370003,0.0904 h -0.503329 z m 8.18503,0.29611 c -0.270369,0 -0.482441,0.0857 -0.636137,0.25683 -0.152574,0.17111 -0.228926,0.40781 -0.228926,0.71055 0,0.30164 0.07635,0.53886 0.228926,0.71107 0.153696,0.17111 0.365768,0.25631 0.636137,0.25631 0.269248,0 0.480892,-0.0852 0.634587,-0.25631 0.153696,-0.17221 0.230477,-0.40943 0.230477,-0.71107 0,-0.30274 -0.07678,-0.53944 -0.230477,-0.71055 -0.153695,-0.17111 -0.365339,-0.25683 -0.634587,-0.25683 z m 2.123902,0 c -0.131258,0 -0.24733,0.0273 -0.348301,0.0822 -0.09984,0.0548 -0.186922,0.13778 -0.260964,0.24857 v -0.28629 H 26.05858 v 1.84278 h 0.311093 v -1.04128 c 0,-0.17988 0.04821,-0.32212 0.144693,-0.42633 0.09648,-0.1042 0.228166,-0.15606 0.395325,-0.15606 0.139112,0 0.243604,0.043 0.313161,0.12971 0.06955,0.0867 0.104386,0.2173 0.104386,0.3917 v 1.10226 h 0.309541 v -1.11208 c 0,-0.25447 -0.05533,-0.44721 -0.166399,-0.57774 -0.111064,-0.13162 -0.274923,-0.1974 -0.491442,-0.1974 z m -8.277531,0.0444 v 1.11569 c 0,0.25338 0.05576,0.44561 0.167948,0.57723 0.112187,0.13162 0.276473,0.1974 0.492993,0.1974 0.131259,0 0.246475,-0.0269 0.345199,-0.0806 0.09985,-0.0548 0.187351,-0.13824 0.262516,-0.25012 v 0.28319 h 0.309542 v -1.84278 h -0.309542 v 1.0449 c 0,0.17988 -0.04864,0.32161 -0.146244,0.42581 -0.09648,0.10421 -0.228683,0.15658 -0.395842,0.15658 -0.139111,0 -0.243086,-0.0436 -0.312642,-0.13022 -0.06956,-0.0878 -0.104386,-0.21886 -0.104386,-0.39326 v -1.10381 z m 6.153629,0.21239 c 0.164914,0 0.295744,0.0639 0.392225,0.19224 0.09648,0.12724 0.144694,0.30004 0.144694,0.51831 0,0.21938 -0.04821,0.39263 -0.144694,0.51987 -0.09648,0.12723 -0.227311,0.1912 -0.392225,0.1912 -0.167157,0 -0.298844,-0.063 -0.395324,-0.18914 -0.09536,-0.12723 -0.143144,-0.30146 -0.143144,-0.52193 0,-0.22047 0.04821,-0.39372 0.144694,-0.51986 0.09648,-0.12725 0.227739,-0.19069 0.393774,-0.19069 z m -8.18503,0.45734 h 0.545187 c 0.182863,0 0.318154,0.0366 0.40566,0.11007 0.08863,0.0724 0.132808,0.18543 0.132808,0.33899 0,0.15247 -0.04418,0.26597 -0.132808,0.34055 -0.08751,0.0735 -0.222797,0.11007 -0.40566,0.11007 h -0.545187 z" />
      <path
         d="m 33.602083,267.36664 c -1.4605,0 -2.645834,1.18533 -2.645834,2.64583 0,1.4605 1.185334,2.64583 2.645834,2.64583 1.4605,0 2.645833,-1.18533 2.645833,-2.64583 0,-1.4605 -1.185333,-2.64583 -2.645833,-2.64583 z m 1.478967,1.21181 0.373116,0.37569 -2.38125,2.38125 -1.322917,-1.32292 0.373116,-0.37312 0.949801,0.94724 z"
         id="path1564"
         style="fill:#616161;fill-opacity:1;stroke-width:0.264583" />
      <path
         d="m 39.952083,267.36664 c -1.4605,0 -2.645833,1.18533 -2.645833,2.64583 0,1.4605 1.185333,2.64583 2.645833,2.64583 1.4605,0 2.645834,-1.18533 2.645834,-2.64583 0,-1.4605 -1.185334,-2.64583 -2.645834,-2.64583 z m 0,1.85208 c 0.43815,0 0.79375,0.3556 0.79375,0.79375 0,0.43815 -0.3556,0.79375 -0.79375,0.79375 -0.43815,0 -0.79375,-0.3556 -0.79375,-0.79375 0,-0.43815 0.3556,-0.79375 0.79375,-0.79375 z"
         id="path1566"
         style="fill:#616161;fill-opacity:1;stroke-width:0.264583" />
    </g>
    <g
       id="thumbnail-gey-dark"
       transform="translate(132.02708)">
      <rect
         ry="0"
         rx="0"
         y="279.53748"
         x="12.170834"
         height="9.5249987"
         width="31.749998"
         id="rect1570"
         style="fill:#2c2c2c;fill-opacity:1;stroke:#f2f2f2;stroke-width:0;stroke-miterlimit:4;stroke-dasharray:none;stroke-opacity:1" />
      <rect
         ry="1.5874999"
         rx="1.5874999"
         y="281.38956"
         x="13.758333"
         height="5.8208332"
         width="15.875"
         id="rect1572"
         style="opacity:0.1;fill:#ffffff;fill-opacity:1;stroke:none;stroke-width:0.264582;stroke-miterlimit:4;stroke-dasharray:none;stroke-opacity:1" />
      <path
         id="path1574"
         style="font-style:normal;font-variant:normal;font-weight:normal;font-stretch:normal;font-size:3.40857px;line-height:1.25;font-family:Samanata;-inkscape-font-specification:Samanata;letter-spacing:0px;word-spacing:0px;opacity:0.65;fill:#ffffff;fill-opacity:1;stroke:none;stroke-width:0.085194"
         d="m 16.329976,283.04813 v 2.45618 h 0.90227 c 0.281588,0 0.49855,-0.0598 0.651123,-0.17932 0.152573,-0.11955 0.228927,-0.28912 0.228927,-0.50849 0,-0.16673 -0.04693,-0.30521 -0.140044,-0.416 -0.09199,-0.11185 -0.221448,-0.18553 -0.388606,-0.22066 0.139111,-0.0219 0.24446,-0.0775 0.31626,-0.16639 0.0718,-0.0889 0.108003,-0.20837 0.108003,-0.35864 0,-0.19415 -0.07009,-0.34376 -0.210323,-0.44907 -0.140233,-0.10529 -0.339779,-0.15761 -0.59893,-0.15761 z m 4.383711,0.0904 v 0.52297 h -0.226859 v 0.23513 h 0.226859 v 1.00045 c 0,0.23035 0.04556,0.38923 0.136426,0.47698 0.09087,0.0866 0.255587,0.13022 0.494543,0.13022 h 0.318327 v -0.25321 h -0.318327 c -0.129017,0 -0.214721,-0.0213 -0.257348,-0.0641 -0.04151,-0.0428 -0.06201,-0.13963 -0.06201,-0.28991 v -1.00045 h 0.637687 v -0.23513 h -0.637687 v -0.52297 z m 1.703255,0 v 0.52297 h -0.227376 v 0.23513 h 0.227376 v 1.00045 c 0,0.23035 0.04504,0.38923 0.135909,0.47698 0.09087,0.0866 0.256103,0.13022 0.495061,0.13022 h 0.31781 v -0.25321 h -0.31781 c -0.129011,0 -0.214715,-0.0213 -0.257349,-0.0641 -0.04151,-0.0428 -0.06253,-0.13963 -0.06253,-0.28991 v -1.00045 h 0.637688 v -0.23513 h -0.637688 v -0.52297 z m -5.746936,0.18242 h 0.503329 c 0.166036,0 0.289229,0.0306 0.370003,0.092 0.0819,0.0614 0.12299,0.15407 0.12299,0.27802 0,0.12504 -0.04109,0.21866 -0.12299,0.28008 -0.08077,0.0603 -0.203967,0.0904 -0.370003,0.0904 h -0.503329 z m 8.18503,0.29611 c -0.270369,0 -0.482441,0.0857 -0.636137,0.25683 -0.152574,0.17111 -0.228926,0.40781 -0.228926,0.71055 0,0.30164 0.07635,0.53886 0.228926,0.71107 0.153696,0.17111 0.365768,0.25631 0.636137,0.25631 0.269248,0 0.480892,-0.0852 0.634587,-0.25631 0.153696,-0.17221 0.230477,-0.40943 0.230477,-0.71107 0,-0.30274 -0.07678,-0.53944 -0.230477,-0.71055 -0.153695,-0.17111 -0.365339,-0.25683 -0.634587,-0.25683 z m 2.123902,0 c -0.131258,0 -0.24733,0.0273 -0.348301,0.0822 -0.09984,0.0548 -0.186922,0.13778 -0.260964,0.24857 v -0.28629 H 26.05858 v 1.84278 h 0.311093 v -1.04128 c 0,-0.17988 0.04821,-0.32212 0.144693,-0.42633 0.09648,-0.1042 0.228166,-0.15606 0.395325,-0.15606 0.139112,0 0.243604,0.043 0.313161,0.12971 0.06955,0.0867 0.104386,0.2173 0.104386,0.3917 v 1.10226 h 0.309541 v -1.11208 c 0,-0.25447 -0.05533,-0.44721 -0.166399,-0.57774 -0.111064,-0.13162 -0.274923,-0.1974 -0.491442,-0.1974 z m -8.277531,0.0444 v 1.11569 c 0,0.25338 0.05576,0.44561 0.167948,0.57723 0.112187,0.13162 0.276473,0.1974 0.492993,0.1974 0.131259,0 0.246475,-0.0269 0.345199,-0.0806 0.09985,-0.0548 0.187351,-0.13824 0.262516,-0.25012 v 0.28319 h 0.309542 v -1.84278 h -0.309542 v 1.0449 c 0,0.17988 -0.04864,0.32161 -0.146244,0.42581 -0.09648,0.10421 -0.228683,0.15658 -0.395842,0.15658 -0.139111,0 -0.243086,-0.0436 -0.312642,-0.13022 -0.06956,-0.0878 -0.104386,-0.21886 -0.104386,-0.39326 v -1.10381 z m 6.153629,0.21239 c 0.164914,0 0.295744,0.0639 0.392225,0.19224 0.09648,0.12724 0.144694,0.30004 0.144694,0.51831 0,0.21938 -0.04821,0.39263 -0.144694,0.51987 -0.09648,0.12723 -0.227311,0.1912 -0.392225,0.1912 -0.167157,0 -0.298844,-0.063 -0.395324,-0.18914 -0.09536,-0.12723 -0.143144,-0.30146 -0.143144,-0.52193 0,-0.22047 0.04821,-0.39372 0.144694,-0.51986 0.09648,-0.12725 0.227739,-0.19069 0.393774,-0.19069 z m -8.18503,0.45734 h 0.545187 c 0.182863,0 0.318154,0.0366 0.40566,0.11007 0.08863,0.0724 0.132808,0.18543 0.132808,0.33899 0,0.15247 -0.04418,0.26597 -0.132808,0.34055 -0.08751,0.0735 -0.222797,0.11007 -0.40566,0.11007 h -0.545187 z" />
      <path
         d="m 33.602083,281.65414 c -1.4605,0 -2.645834,1.18533 -2.645834,2.64583 0,1.4605 1.185334,2.64583 2.645834,2.64583 1.4605,0 2.645833,-1.18533 2.645833,-2.64583 0,-1.4605 -1.185333,-2.64583 -2.645833,-2.64583 z m 1.478967,1.21181 0.373116,0.37569 -2.38125,2.38125 -1.322917,-1.32292 0.373116,-0.37312 0.949801,0.94724 z"
         id="path1576"
         style="fill:#6b6b6b;fill-opacity:1;stroke-width:0.264583" />
      <path
         d="m 39.952083,281.65414 c -1.4605,0 -2.645833,1.18533 -2.645833,2.64583 0,1.4605 1.185333,2.64583 2.645833,2.64583 1.4605,0 2.645834,-1.18533 2.645834,-2.64583 0,-1.4605 -1.185334,-2.64583 -2.645834,-2.64583 z m 0,1.85208 c 0.43815,0 0.79375,0.3556 0.79375,0.79375 0,0.43815 -0.3556,0.79375 -0.79375,0.79375 -0.43815,0 -0.79375,-0.3556 -0.79375,-0.79375 0,-0.43815 0.3556,-0.79375 0.79375,-0.79375 z"
         id="path1578"
         style="fill:#6b6b6b;fill-opacity:1;stroke-width:0.264583" />
    </g>
    <g
       id="thumbnail-purple"
       transform="translate(177.00625)">
      <rect
         ry="0"
         rx="0"
         y="265.24997"
         x="12.170834"
         height="9.5249987"
         width="31.749998"
         id="rect1582"
         style="fill:#f2f2f2;fill-opacity:1;stroke:#f2f2f2;stroke-width:0;stroke-miterlimit:4;stroke-dasharray:none;stroke-opacity:1" />
      <rect
         ry="1.5874999"
         rx="1.5874999"
         y="267.10205"
         x="13.758333"
         height="5.8208332"
         width="15.875"
         id="rect1584"
         style="opacity:0.08;fill:#000000;fill-opacity:1;stroke:none;stroke-width:0.264582;stroke-miterlimit:4;stroke-dasharray:none;stroke-opacity:1" />
      <path
         id="path1586"
         style="font-style:normal;font-variant:normal;font-weight:normal;font-stretch:normal;font-size:3.40857px;line-height:1.25;font-family:Samanata;-inkscape-font-specification:Samanata;letter-spacing:0px;word-spacing:0px;opacity:0.65;fill:#000000;fill-opacity:1;stroke:none;stroke-width:0.085194"
         d="m 16.329976,268.76062 v 2.45618 h 0.90227 c 0.281588,0 0.49855,-0.0598 0.651123,-0.17932 0.152573,-0.11955 0.228927,-0.28912 0.228927,-0.50849 0,-0.16673 -0.04693,-0.30521 -0.140044,-0.416 -0.09199,-0.11185 -0.221448,-0.18553 -0.388606,-0.22066 0.139111,-0.0219 0.24446,-0.0776 0.31626,-0.16639 0.0718,-0.0889 0.108003,-0.20837 0.108003,-0.35864 0,-0.19415 -0.07009,-0.34376 -0.210323,-0.44907 -0.140233,-0.10529 -0.339779,-0.15761 -0.59893,-0.15761 z m 4.383711,0.0904 v 0.52297 h -0.226859 v 0.23513 h 0.226859 v 1.00045 c 0,0.23035 0.04556,0.38923 0.136426,0.47698 0.09087,0.0866 0.255587,0.13022 0.494543,0.13022 h 0.318327 v -0.25321 h -0.318327 c -0.129017,0 -0.214721,-0.0213 -0.257348,-0.0641 -0.04151,-0.0428 -0.06201,-0.13963 -0.06201,-0.28991 v -1.00045 h 0.637687 v -0.23513 H 21.025298 V 268.851 Z m 1.703255,0 v 0.52297 h -0.227376 v 0.23513 h 0.227376 v 1.00045 c 0,0.23035 0.04504,0.38923 0.135909,0.47698 0.09087,0.0866 0.256103,0.13022 0.495061,0.13022 h 0.31781 v -0.25321 h -0.31781 c -0.129011,0 -0.214715,-0.0213 -0.257349,-0.0641 -0.04151,-0.0428 -0.06253,-0.13963 -0.06253,-0.28991 v -1.00045 h 0.637688 v -0.23513 H 22.728033 V 268.851 Z m -5.746936,0.18242 h 0.503329 c 0.166036,0 0.289229,0.0306 0.370003,0.092 0.0819,0.0614 0.12299,0.15407 0.12299,0.27802 0,0.12504 -0.04109,0.21866 -0.12299,0.28008 -0.08077,0.0603 -0.203967,0.0904 -0.370003,0.0904 h -0.503329 z m 8.18503,0.29611 c -0.270369,0 -0.482441,0.0857 -0.636137,0.25683 -0.152574,0.17111 -0.228926,0.40781 -0.228926,0.71055 0,0.30164 0.07635,0.53886 0.228926,0.71107 0.153696,0.17111 0.365768,0.25631 0.636137,0.25631 0.269248,0 0.480892,-0.0852 0.634587,-0.25631 0.153696,-0.17221 0.230477,-0.40943 0.230477,-0.71107 0,-0.30274 -0.07678,-0.53944 -0.230477,-0.71055 -0.153695,-0.17111 -0.365339,-0.25683 -0.634587,-0.25683 z m 2.123902,0 c -0.131258,0 -0.24733,0.0273 -0.348301,0.0822 -0.09984,0.0548 -0.186922,0.13778 -0.260964,0.24857 v -0.28629 H 26.05858 v 1.84278 h 0.311093 v -1.04128 c 0,-0.17988 0.04821,-0.32212 0.144693,-0.42633 0.09648,-0.1042 0.228166,-0.15606 0.395325,-0.15606 0.139112,0 0.243604,0.043 0.313161,0.12971 0.06955,0.0867 0.104386,0.2173 0.104386,0.3917 v 1.10226 h 0.309541 v -1.11208 c 0,-0.25447 -0.05533,-0.44721 -0.166399,-0.57774 -0.111064,-0.13162 -0.274923,-0.1974 -0.491442,-0.1974 z m -8.277531,0.0444 v 1.11569 c 0,0.25338 0.05576,0.44561 0.167948,0.57723 0.112187,0.13162 0.276473,0.1974 0.492993,0.1974 0.131259,0 0.246475,-0.0269 0.345199,-0.0806 0.09985,-0.0548 0.187351,-0.13824 0.262516,-0.25012 v 0.28319 h 0.309542 v -1.84278 h -0.309542 v 1.0449 c 0,0.17988 -0.04864,0.32161 -0.146244,0.42581 -0.09648,0.10421 -0.228683,0.15658 -0.395842,0.15658 -0.139111,0 -0.243086,-0.0436 -0.312642,-0.13022 -0.06956,-0.0878 -0.104386,-0.21886 -0.104386,-0.39326 v -1.10381 z m 6.153629,0.21239 c 0.164914,0 0.295744,0.0639 0.392225,0.19224 0.09648,0.12724 0.144694,0.30004 0.144694,0.51831 0,0.21938 -0.04821,0.39263 -0.144694,0.51987 -0.09648,0.12723 -0.227311,0.1912 -0.392225,0.1912 -0.167157,0 -0.298844,-0.063 -0.395324,-0.18914 -0.09536,-0.12723 -0.143144,-0.30146 -0.143144,-0.52193 0,-0.22047 0.04821,-0.39372 0.144694,-0.51986 0.09648,-0.12725 0.227739,-0.19069 0.393774,-0.19069 z m -8.18503,0.45734 h 0.545187 c 0.182863,0 0.318154,0.0366 0.40566,0.11007 0.08863,0.0724 0.132808,0.18543 0.132808,0.33899 0,0.15247 -0.04418,0.26597 -0.132808,0.34055 -0.08751,0.0735 -0.222797,0.11007 -0.40566,0.11007 h -0.545187 z" />
      <path
         d="m 33.602083,267.36664 c -1.4605,0 -2.645834,1.18533 -2.645834,2.64583 0,1.4605 1.185334,2.64583 2.645834,2.64583 1.4605,0 2.645833,-1.18533 2.645833,-2.64583 0,-1.4605 -1.185333,-2.64583 -2.645833,-2.64583 z m 1.478967,1.21181 0.373116,0.37569 -2.38125,2.38125 -1.322917,-1.32292 0.373116,-0.37312 0.949801,0.94724 z"
         id="path1588"
         style="fill:#ab47bc;fill-opacity:1;stroke-width:0.264583" />
      <path
         d="m 39.952083,267.36664 c -1.4605,0 -2.645833,1.18533 -2.645833,2.64583 0,1.4605 1.185333,2.64583 2.645833,2.64583 1.4605,0 2.645834,-1.18533 2.645834,-2.64583 0,-1.4605 -1.185334,-2.64583 -2.645834,-2.64583 z m 0,1.85208 c 0.43815,0 0.79375,0.3556 0.79375,0.79375 0,0.43815 -0.3556,0.79375 -0.79375,0.79375 -0.43815,0 -0.79375,-0.3556 -0.79375,-0.79375 0,-0.43815 0.3556,-0.79375 0.79375,-0.79375 z"
         id="path1590"
         style="fill:#ab47bc;fill-opacity:1;stroke-width:0.264583" />
    </g>
    <g
       id="thumbnail-purple-dark"
       transform="translate(177.00625)">
      <rect
         ry="0"
         rx="0"
         y="279.53748"
         x="12.170834"
         height="9.5249987"
         width="31.749998"
         id="rect1594"
         style="fill:#2c2c2c;fill-opacity:1;stroke:#f2f2f2;stroke-width:0;stroke-miterlimit:4;stroke-dasharray:none;stroke-opacity:1" />
      <rect
         ry="1.5874999"
         rx="1.5874999"
         y="281.38956"
         x="13.758333"
         height="5.8208332"
         width="15.875"
         id="rect1596"
         style="opacity:0.1;fill:#ffffff;fill-opacity:1;stroke:none;stroke-width:0.264582;stroke-miterlimit:4;stroke-dasharray:none;stroke-opacity:1" />
      <path
         id="path1598"
         style="font-style:normal;font-variant:normal;font-weight:normal;font-stretch:normal;font-size:3.40857px;line-height:1.25;font-family:Samanata;-inkscape-font-specification:Samanata;letter-spacing:0px;word-spacing:0px;opacity:0.65;fill:#ffffff;fill-opacity:1;stroke:none;stroke-width:0.085194"
         d="m 16.329976,283.04813 v 2.45618 h 0.90227 c 0.281588,0 0.49855,-0.0598 0.651123,-0.17932 0.152573,-0.11955 0.228927,-0.28912 0.228927,-0.50849 0,-0.16673 -0.04693,-0.30521 -0.140044,-0.416 -0.09199,-0.11185 -0.221448,-0.18553 -0.388606,-0.22066 0.139111,-0.0219 0.24446,-0.0775 0.31626,-0.16639 0.0718,-0.0889 0.108003,-0.20837 0.108003,-0.35864 0,-0.19415 -0.07009,-0.34376 -0.210323,-0.44907 -0.140233,-0.10529 -0.339779,-0.15761 -0.59893,-0.15761 z m 4.383711,0.0904 v 0.52297 h -0.226859 v 0.23513 h 0.226859 v 1.00045 c 0,0.23035 0.04556,0.38923 0.136426,0.47698 0.09087,0.0866 0.255587,0.13022 0.494543,0.13022 h 0.318327 v -0.25321 h -0.318327 c -0.129017,0 -0.214721,-0.0213 -0.257348,-0.0641 -0.04151,-0.0428 -0.06201,-0.13963 -0.06201,-0.28991 v -1.00045 h 0.637687 v -0.23513 h -0.637687 v -0.52297 z m 1.703255,0 v 0.52297 h -0.227376 v 0.23513 h 0.227376 v 1.00045 c 0,0.23035 0.04504,0.38923 0.135909,0.47698 0.09087,0.0866 0.256103,0.13022 0.495061,0.13022 h 0.31781 v -0.25321 h -0.31781 c -0.129011,0 -0.214715,-0.0213 -0.257349,-0.0641 -0.04151,-0.0428 -0.06253,-0.13963 -0.06253,-0.28991 v -1.00045 h 0.637688 v -0.23513 h -0.637688 v -0.52297 z m -5.746936,0.18242 h 0.503329 c 0.166036,0 0.289229,0.0306 0.370003,0.092 0.0819,0.0614 0.12299,0.15407 0.12299,0.27802 0,0.12504 -0.04109,0.21866 -0.12299,0.28008 -0.08077,0.0603 -0.203967,0.0904 -0.370003,0.0904 h -0.503329 z m 8.18503,0.29611 c -0.270369,0 -0.482441,0.0857 -0.636137,0.25683 -0.152574,0.17111 -0.228926,0.40781 -0.228926,0.71055 0,0.30164 0.07635,0.53886 0.228926,0.71107 0.153696,0.17111 0.365768,0.25631 0.636137,0.25631 0.269248,0 0.480892,-0.0852 0.634587,-0.25631 0.153696,-0.17221 0.230477,-0.40943 0.230477,-0.71107 0,-0.30274 -0.07678,-0.53944 -0.230477,-0.71055 -0.153695,-0.17111 -0.365339,-0.25683 -0.634587,-0.25683 z m 2.123902,0 c -0.131258,0 -0.24733,0.0273 -0.348301,0.0822 -0.09984,0.0548 -0.186922,0.13778 -0.260964,0.24857 v -0.28629 H 26.05858 v 1.84278 h 0.311093 v -1.04128 c 0,-0.17988 0.04821,-0.32212 0.144693,-0.42633 0.09648,-0.1042 0.228166,-0.15606 0.395325,-0.15606 0.139112,0 0.243604,0.043 0.313161,0.12971 0.06955,0.0867 0.104386,0.2173 0.104386,0.3917 v 1.10226 h 0.309541 v -1.11208 c 0,-0.25447 -0.05533,-0.44721 -0.166399,-0.57774 -0.111064,-0.13162 -0.274923,-0.1974 -0.491442,-0.1974 z m -8.277531,0.0444 v 1.11569 c 0,0.25338 0.05576,0.44561 0.167948,0.57723 0.112187,0.13162 0.276473,0.1974 0.492993,0.1974 0.131259,0 0.246475,-0.0269 0.345199,-0.0806 0.09985,-0.0548 0.187351,-0.13824 0.262516,-0.25012 v 0.28319 h 0.309542 v -1.84278 h -0.309542 v 1.0449 c 0,0.17988 -0.04864,0.32161 -0.146244,0.42581 -0.09648,0.10421 -0.228683,0.15658 -0.395842,0.15658 -0.139111,0 -0.243086,-0.0436 -0.312642,-0.13022 -0.06956,-0.0878 -0.104386,-0.21886 -0.104386,-0.39326 v -1.10381 z m 6.153629,0.21239 c 0.164914,0 0.295744,0.0639 0.392225,0.19224 0.09648,0.12724 0.144694,0.30004 0.144694,0.51831 0,0.21938 -0.04821,0.39263 -0.144694,0.51987 -0.09648,0.12723 -0.227311,0.1912 -0.392225,0.1912 -0.167157,0 -0.298844,-0.063 -0.395324,-0.18914 -0.09536,-0.12723 -0.143144,-0.30146 -0.143144,-0.52193 0,-0.22047 0.04821,-0.39372 0.144694,-0.51986 0.09648,-0.12725 0.227739,-0.19069 0.393774,-0.19069 z m -8.18503,0.45734 h 0.545187 c 0.182863,0 0.318154,0.0366 0.40566,0.11007 0.08863,0.0724 0.132808,0.18543 0.132808,0.33899 0,0.15247 -0.04418,0.26597 -0.132808,0.34055 -0.08751,0.0735 -0.222797,0.11007 -0.40566,0.11007 h -0.545187 z" />
      <path
         d="m 33.602083,281.65414 c -1.4605,0 -2.645834,1.18533 -2.645834,2.64583 0,1.4605 1.185334,2.64583 2.645834,2.64583 1.4605,0 2.645833,-1.18533 2.645833,-2.64583 0,-1.4605 -1.185333,-2.64583 -2.645833,-2.64583 z m 1.478967,1.21181 0.373116,0.37569 -2.38125,2.38125 -1.322917,-1.32292 0.373116,-0.37312 0.949801,0.94724 z"
         id="path1600"
         style="fill:#ab47bc;fill-opacity:1;stroke-width:0.264583" />
      <path
         d="m 39.952083,281.65414 c -1.4605,0 -2.645833,1.18533 -2.645833,2.64583 0,1.4605 1.185333,2.64583 2.645833,2.64583 1.4605,0 2.645834,-1.18533 2.645834,-2.64583 0,-1.4605 -1.185334,-2.64583 -2.645834,-2.64583 z m 0,1.85208 c 0.43815,0 0.79375,0.3556 0.79375,0.79375 0,0.43815 -0.3556,0.79375 -0.79375,0.79375 -0.43815,0 -0.79375,-0.3556 -0.79375,-0.79375 0,-0.43815 0.3556,-0.79375 0.79375,-0.79375 z"
         id="path1602"
         style="fill:#ab47bc;fill-opacity:1;stroke-width:0.264583" />
    </g>
    <g
       id="thumbnail-pink"
       transform="translate(220.6625)">
      <rect
         ry="0"
         rx="0"
         y="265.24997"
         x="12.170834"
         height="9.5249987"
         width="31.749998"
         id="rect1606"
         style="fill:#f2f2f2;fill-opacity:1;stroke:#f2f2f2;stroke-width:0;stroke-miterlimit:4;stroke-dasharray:none;stroke-opacity:1" />
      <rect
         ry="1.5874999"
         rx="1.5874999"
         y="267.10205"
         x="13.758333"
         height="5.8208332"
         width="15.875"
         id="rect1608"
         style="opacity:0.08;fill:#000000;fill-opacity:1;stroke:none;stroke-width:0.264582;stroke-miterlimit:4;stroke-dasharray:none;stroke-opacity:1" />
      <path
         id="path1610"
         style="font-style:normal;font-variant:normal;font-weight:normal;font-stretch:normal;font-size:3.40857px;line-height:1.25;font-family:Samanata;-inkscape-font-specification:Samanata;letter-spacing:0px;word-spacing:0px;opacity:0.65;fill:#000000;fill-opacity:1;stroke:none;stroke-width:0.085194"
         d="m 16.329976,268.76062 v 2.45618 h 0.90227 c 0.281588,0 0.49855,-0.0598 0.651123,-0.17932 0.152573,-0.11955 0.228927,-0.28912 0.228927,-0.50849 0,-0.16673 -0.04693,-0.30521 -0.140044,-0.416 -0.09199,-0.11185 -0.221448,-0.18553 -0.388606,-0.22066 0.139111,-0.0219 0.24446,-0.0776 0.31626,-0.16639 0.0718,-0.0889 0.108003,-0.20837 0.108003,-0.35864 0,-0.19415 -0.07009,-0.34376 -0.210323,-0.44907 -0.140233,-0.10529 -0.339779,-0.15761 -0.59893,-0.15761 z m 4.383711,0.0904 v 0.52297 h -0.226859 v 0.23513 h 0.226859 v 1.00045 c 0,0.23035 0.04556,0.38923 0.136426,0.47698 0.09087,0.0866 0.255587,0.13022 0.494543,0.13022 h 0.318327 v -0.25321 h -0.318327 c -0.129017,0 -0.214721,-0.0213 -0.257348,-0.0641 -0.04151,-0.0428 -0.06201,-0.13963 -0.06201,-0.28991 v -1.00045 h 0.637687 v -0.23513 H 21.025298 V 268.851 Z m 1.703255,0 v 0.52297 h -0.227376 v 0.23513 h 0.227376 v 1.00045 c 0,0.23035 0.04504,0.38923 0.135909,0.47698 0.09087,0.0866 0.256103,0.13022 0.495061,0.13022 h 0.31781 v -0.25321 h -0.31781 c -0.129011,0 -0.214715,-0.0213 -0.257349,-0.0641 -0.04151,-0.0428 -0.06253,-0.13963 -0.06253,-0.28991 v -1.00045 h 0.637688 v -0.23513 H 22.728033 V 268.851 Z m -5.746936,0.18242 h 0.503329 c 0.166036,0 0.289229,0.0306 0.370003,0.092 0.0819,0.0614 0.12299,0.15407 0.12299,0.27802 0,0.12504 -0.04109,0.21866 -0.12299,0.28008 -0.08077,0.0603 -0.203967,0.0904 -0.370003,0.0904 h -0.503329 z m 8.18503,0.29611 c -0.270369,0 -0.482441,0.0857 -0.636137,0.25683 -0.152574,0.17111 -0.228926,0.40781 -0.228926,0.71055 0,0.30164 0.07635,0.53886 0.228926,0.71107 0.153696,0.17111 0.365768,0.25631 0.636137,0.25631 0.269248,0 0.480892,-0.0852 0.634587,-0.25631 0.153696,-0.17221 0.230477,-0.40943 0.230477,-0.71107 0,-0.30274 -0.07678,-0.53944 -0.230477,-0.71055 -0.153695,-0.17111 -0.365339,-0.25683 -0.634587,-0.25683 z m 2.123902,0 c -0.131258,0 -0.24733,0.0273 -0.348301,0.0822 -0.09984,0.0548 -0.186922,0.13778 -0.260964,0.24857 v -0.28629 H 26.05858 v 1.84278 h 0.311093 v -1.04128 c 0,-0.17988 0.04821,-0.32212 0.144693,-0.42633 0.09648,-0.1042 0.228166,-0.15606 0.395325,-0.15606 0.139112,0 0.243604,0.043 0.313161,0.12971 0.06955,0.0867 0.104386,0.2173 0.104386,0.3917 v 1.10226 h 0.309541 v -1.11208 c 0,-0.25447 -0.05533,-0.44721 -0.166399,-0.57774 -0.111064,-0.13162 -0.274923,-0.1974 -0.491442,-0.1974 z m -8.277531,0.0444 v 1.11569 c 0,0.25338 0.05576,0.44561 0.167948,0.57723 0.112187,0.13162 0.276473,0.1974 0.492993,0.1974 0.131259,0 0.246475,-0.0269 0.345199,-0.0806 0.09985,-0.0548 0.187351,-0.13824 0.262516,-0.25012 v 0.28319 h 0.309542 v -1.84278 h -0.309542 v 1.0449 c 0,0.17988 -0.04864,0.32161 -0.146244,0.42581 -0.09648,0.10421 -0.228683,0.15658 -0.395842,0.15658 -0.139111,0 -0.243086,-0.0436 -0.312642,-0.13022 -0.06956,-0.0878 -0.104386,-0.21886 -0.104386,-0.39326 v -1.10381 z m 6.153629,0.21239 c 0.164914,0 0.295744,0.0639 0.392225,0.19224 0.09648,0.12724 0.144694,0.30004 0.144694,0.51831 0,0.21938 -0.04821,0.39263 -0.144694,0.51987 -0.09648,0.12723 -0.227311,0.1912 -0.392225,0.1912 -0.167157,0 -0.298844,-0.063 -0.395324,-0.18914 -0.09536,-0.12723 -0.143144,-0.30146 -0.143144,-0.52193 0,-0.22047 0.04821,-0.39372 0.144694,-0.51986 0.09648,-0.12725 0.227739,-0.19069 0.393774,-0.19069 z m -8.18503,0.45734 h 0.545187 c 0.182863,0 0.318154,0.0366 0.40566,0.11007 0.08863,0.0724 0.132808,0.18543 0.132808,0.33899 0,0.15247 -0.04418,0.26597 -0.132808,0.34055 -0.08751,0.0735 -0.222797,0.11007 -0.40566,0.11007 h -0.545187 z" />
      <path
         d="m 33.602083,267.36664 c -1.4605,0 -2.645834,1.18533 -2.645834,2.64583 0,1.4605 1.185334,2.64583 2.645834,2.64583 1.4605,0 2.645833,-1.18533 2.645833,-2.64583 0,-1.4605 -1.185333,-2.64583 -2.645833,-2.64583 z m 1.478967,1.21181 0.373116,0.37569 -2.38125,2.38125 -1.322917,-1.32292 0.373116,-0.37312 0.949801,0.94724 z"
         id="path1612"
         style="fill:#ec407a;fill-opacity:1;stroke-width:0.264583" />
      <path
         d="m 39.952083,267.36664 c -1.4605,0 -2.645833,1.18533 -2.645833,2.64583 0,1.4605 1.185333,2.64583 2.645833,2.64583 1.4605,0 2.645834,-1.18533 2.645834,-2.64583 0,-1.4605 -1.185334,-2.64583 -2.645834,-2.64583 z m 0,1.85208 c 0.43815,0 0.79375,0.3556 0.79375,0.79375 0,0.43815 -0.3556,0.79375 -0.79375,0.79375 -0.43815,0 -0.79375,-0.3556 -0.79375,-0.79375 0,-0.43815 0.3556,-0.79375 0.79375,-0.79375 z"
         id="path1614"
         style="fill:#ec407a;fill-opacity:1;stroke-width:0.264583" />
    </g>
    <g
       id="thumbnail-pink-dark"
       transform="translate(220.6625)">
      <rect
         ry="0"
         rx="0"
         y="279.53748"
         x="12.170834"
         height="9.5249987"
         width="31.749998"
         id="rect1618"
         style="fill:#2c2c2c;fill-opacity:1;stroke:#f2f2f2;stroke-width:0;stroke-miterlimit:4;stroke-dasharray:none;stroke-opacity:1" />
      <rect
         ry="1.5874999"
         rx="1.5874999"
         y="281.38956"
         x="13.758333"
         height="5.8208332"
         width="15.875"
         id="rect1620"
         style="opacity:0.1;fill:#ffffff;fill-opacity:1;stroke:none;stroke-width:0.264582;stroke-miterlimit:4;stroke-dasharray:none;stroke-opacity:1" />
      <path
         id="path1622"
         style="font-style:normal;font-variant:normal;font-weight:normal;font-stretch:normal;font-size:3.40857px;line-height:1.25;font-family:Samanata;-inkscape-font-specification:Samanata;letter-spacing:0px;word-spacing:0px;opacity:0.65;fill:#ffffff;fill-opacity:1;stroke:none;stroke-width:0.085194"
         d="m 16.329976,283.04813 v 2.45618 h 0.90227 c 0.281588,0 0.49855,-0.0598 0.651123,-0.17932 0.152573,-0.11955 0.228927,-0.28912 0.228927,-0.50849 0,-0.16673 -0.04693,-0.30521 -0.140044,-0.416 -0.09199,-0.11185 -0.221448,-0.18553 -0.388606,-0.22066 0.139111,-0.0219 0.24446,-0.0775 0.31626,-0.16639 0.0718,-0.0889 0.108003,-0.20837 0.108003,-0.35864 0,-0.19415 -0.07009,-0.34376 -0.210323,-0.44907 -0.140233,-0.10529 -0.339779,-0.15761 -0.59893,-0.15761 z m 4.383711,0.0904 v 0.52297 h -0.226859 v 0.23513 h 0.226859 v 1.00045 c 0,0.23035 0.04556,0.38923 0.136426,0.47698 0.09087,0.0866 0.255587,0.13022 0.494543,0.13022 h 0.318327 v -0.25321 h -0.318327 c -0.129017,0 -0.214721,-0.0213 -0.257348,-0.0641 -0.04151,-0.0428 -0.06201,-0.13963 -0.06201,-0.28991 v -1.00045 h 0.637687 v -0.23513 h -0.637687 v -0.52297 z m 1.703255,0 v 0.52297 h -0.227376 v 0.23513 h 0.227376 v 1.00045 c 0,0.23035 0.04504,0.38923 0.135909,0.47698 0.09087,0.0866 0.256103,0.13022 0.495061,0.13022 h 0.31781 v -0.25321 h -0.31781 c -0.129011,0 -0.214715,-0.0213 -0.257349,-0.0641 -0.04151,-0.0428 -0.06253,-0.13963 -0.06253,-0.28991 v -1.00045 h 0.637688 v -0.23513 h -0.637688 v -0.52297 z m -5.746936,0.18242 h 0.503329 c 0.166036,0 0.289229,0.0306 0.370003,0.092 0.0819,0.0614 0.12299,0.15407 0.12299,0.27802 0,0.12504 -0.04109,0.21866 -0.12299,0.28008 -0.08077,0.0603 -0.203967,0.0904 -0.370003,0.0904 h -0.503329 z m 8.18503,0.29611 c -0.270369,0 -0.482441,0.0857 -0.636137,0.25683 -0.152574,0.17111 -0.228926,0.40781 -0.228926,0.71055 0,0.30164 0.07635,0.53886 0.228926,0.71107 0.153696,0.17111 0.365768,0.25631 0.636137,0.25631 0.269248,0 0.480892,-0.0852 0.634587,-0.25631 0.153696,-0.17221 0.230477,-0.40943 0.230477,-0.71107 0,-0.30274 -0.07678,-0.53944 -0.230477,-0.71055 -0.153695,-0.17111 -0.365339,-0.25683 -0.634587,-0.25683 z m 2.123902,0 c -0.131258,0 -0.24733,0.0273 -0.348301,0.0822 -0.09984,0.0548 -0.186922,0.13778 -0.260964,0.24857 v -0.28629 H 26.05858 v 1.84278 h 0.311093 v -1.04128 c 0,-0.17988 0.04821,-0.32212 0.144693,-0.42633 0.09648,-0.1042 0.228166,-0.15606 0.395325,-0.15606 0.139112,0 0.243604,0.043 0.313161,0.12971 0.06955,0.0867 0.104386,0.2173 0.104386,0.3917 v 1.10226 h 0.309541 v -1.11208 c 0,-0.25447 -0.05533,-0.44721 -0.166399,-0.57774 -0.111064,-0.13162 -0.274923,-0.1974 -0.491442,-0.1974 z m -8.277531,0.0444 v 1.11569 c 0,0.25338 0.05576,0.44561 0.167948,0.57723 0.112187,0.13162 0.276473,0.1974 0.492993,0.1974 0.131259,0 0.246475,-0.0269 0.345199,-0.0806 0.09985,-0.0548 0.187351,-0.13824 0.262516,-0.25012 v 0.28319 h 0.309542 v -1.84278 h -0.309542 v 1.0449 c 0,0.17988 -0.04864,0.32161 -0.146244,0.42581 -0.09648,0.10421 -0.228683,0.15658 -0.395842,0.15658 -0.139111,0 -0.243086,-0.0436 -0.312642,-0.13022 -0.06956,-0.0878 -0.104386,-0.21886 -0.104386,-0.39326 v -1.10381 z m 6.153629,0.21239 c 0.164914,0 0.295744,0.0639 0.392225,0.19224 0.09648,0.12724 0.144694,0.30004 0.144694,0.51831 0,0.21938 -0.04821,0.39263 -0.144694,0.51987 -0.09648,0.12723 -0.227311,0.1912 -0.392225,0.1912 -0.167157,0 -0.298844,-0.063 -0.395324,-0.18914 -0.09536,-0.12723 -0.143144,-0.30146 -0.143144,-0.52193 0,-0.22047 0.04821,-0.39372 0.144694,-0.51986 0.09648,-0.12725 0.227739,-0.19069 0.393774,-0.19069 z m -8.18503,0.45734 h 0.545187 c 0.182863,0 0.318154,0.0366 0.40566,0.11007 0.08863,0.0724 0.132808,0.18543 0.132808,0.33899 0,0.15247 -0.04418,0.26597 -0.132808,0.34055 -0.08751,0.0735 -0.222797,0.11007 -0.40566,0.11007 h -0.545187 z" />
      <path
         d="m 33.602083,281.65414 c -1.4605,0 -2.645834,1.18533 -2.645834,2.64583 0,1.4605 1.185334,2.64583 2.645834,2.64583 1.4605,0 2.645833,-1.18533 2.645833,-2.64583 0,-1.4605 -1.185333,-2.64583 -2.645833,-2.64583 z m 1.478967,1.21181 0.373116,0.37569 -2.38125,2.38125 -1.322917,-1.32292 0.373116,-0.37312 0.949801,0.94724 z"
         id="path1624"
         style="fill:#ec407a;fill-opacity:1;stroke-width:0.264583" />
      <path
         d="m 39.952083,281.65414 c -1.4605,0 -2.645833,1.18533 -2.645833,2.64583 0,1.4605 1.185333,2.64583 2.645833,2.64583 1.4605,0 2.645834,-1.18533 2.645834,-2.64583 0,-1.4605 -1.185334,-2.64583 -2.645834,-2.64583 z m 0,1.85208 c 0.43815,0 0.79375,0.3556 0.79375,0.79375 0,0.43815 -0.3556,0.79375 -0.79375,0.79375 -0.43815,0 -0.79375,-0.3556 -0.79375,-0.79375 0,-0.43815 0.3556,-0.79375 0.79375,-0.79375 z"
         id="path1626"
         style="fill:#ec407a;fill-opacity:1;stroke-width:0.264583" />
    </g>
    <g
       id="thumbnail-red"
       transform="translate(261.67292)">
      <rect
         ry="0"
         rx="0"
         y="265.24997"
         x="12.170834"
         height="9.5249987"
         width="31.749998"
         id="rect1630"
         style="fill:#f2f2f2;fill-opacity:1;stroke:#f2f2f2;stroke-width:0;stroke-miterlimit:4;stroke-dasharray:none;stroke-opacity:1" />
      <rect
         ry="1.5874999"
         rx="1.5874999"
         y="267.10205"
         x="13.758333"
         height="5.8208332"
         width="15.875"
         id="rect1632"
         style="opacity:0.08;fill:#000000;fill-opacity:1;stroke:none;stroke-width:0.264582;stroke-miterlimit:4;stroke-dasharray:none;stroke-opacity:1" />
      <path
         id="path1634"
         style="font-style:normal;font-variant:normal;font-weight:normal;font-stretch:normal;font-size:3.40857px;line-height:1.25;font-family:Samanata;-inkscape-font-specification:Samanata;letter-spacing:0px;word-spacing:0px;opacity:0.65;fill:#000000;fill-opacity:1;stroke:none;stroke-width:0.085194"
         d="m 16.329976,268.76062 v 2.45618 h 0.90227 c 0.281588,0 0.49855,-0.0598 0.651123,-0.17932 0.152573,-0.11955 0.228927,-0.28912 0.228927,-0.50849 0,-0.16673 -0.04693,-0.30521 -0.140044,-0.416 -0.09199,-0.11185 -0.221448,-0.18553 -0.388606,-0.22066 0.139111,-0.0219 0.24446,-0.0776 0.31626,-0.16639 0.0718,-0.0889 0.108003,-0.20837 0.108003,-0.35864 0,-0.19415 -0.07009,-0.34376 -0.210323,-0.44907 -0.140233,-0.10529 -0.339779,-0.15761 -0.59893,-0.15761 z m 4.383711,0.0904 v 0.52297 h -0.226859 v 0.23513 h 0.226859 v 1.00045 c 0,0.23035 0.04556,0.38923 0.136426,0.47698 0.09087,0.0866 0.255587,0.13022 0.494543,0.13022 h 0.318327 v -0.25321 h -0.318327 c -0.129017,0 -0.214721,-0.0213 -0.257348,-0.0641 -0.04151,-0.0428 -0.06201,-0.13963 -0.06201,-0.28991 v -1.00045 h 0.637687 v -0.23513 H 21.025298 V 268.851 Z m 1.703255,0 v 0.52297 h -0.227376 v 0.23513 h 0.227376 v 1.00045 c 0,0.23035 0.04504,0.38923 0.135909,0.47698 0.09087,0.0866 0.256103,0.13022 0.495061,0.13022 h 0.31781 v -0.25321 h -0.31781 c -0.129011,0 -0.214715,-0.0213 -0.257349,-0.0641 -0.04151,-0.0428 -0.06253,-0.13963 -0.06253,-0.28991 v -1.00045 h 0.637688 v -0.23513 H 22.728033 V 268.851 Z m -5.746936,0.18242 h 0.503329 c 0.166036,0 0.289229,0.0306 0.370003,0.092 0.0819,0.0614 0.12299,0.15407 0.12299,0.27802 0,0.12504 -0.04109,0.21866 -0.12299,0.28008 -0.08077,0.0603 -0.203967,0.0904 -0.370003,0.0904 h -0.503329 z m 8.18503,0.29611 c -0.270369,0 -0.482441,0.0857 -0.636137,0.25683 -0.152574,0.17111 -0.228926,0.40781 -0.228926,0.71055 0,0.30164 0.07635,0.53886 0.228926,0.71107 0.153696,0.17111 0.365768,0.25631 0.636137,0.25631 0.269248,0 0.480892,-0.0852 0.634587,-0.25631 0.153696,-0.17221 0.230477,-0.40943 0.230477,-0.71107 0,-0.30274 -0.07678,-0.53944 -0.230477,-0.71055 -0.153695,-0.17111 -0.365339,-0.25683 -0.634587,-0.25683 z m 2.123902,0 c -0.131258,0 -0.24733,0.0273 -0.348301,0.0822 -0.09984,0.0548 -0.186922,0.13778 -0.260964,0.24857 v -0.28629 H 26.05858 v 1.84278 h 0.311093 v -1.04128 c 0,-0.17988 0.04821,-0.32212 0.144693,-0.42633 0.09648,-0.1042 0.228166,-0.15606 0.395325,-0.15606 0.139112,0 0.243604,0.043 0.313161,0.12971 0.06955,0.0867 0.104386,0.2173 0.104386,0.3917 v 1.10226 h 0.309541 v -1.11208 c 0,-0.25447 -0.05533,-0.44721 -0.166399,-0.57774 -0.111064,-0.13162 -0.274923,-0.1974 -0.491442,-0.1974 z m -8.277531,0.0444 v 1.11569 c 0,0.25338 0.05576,0.44561 0.167948,0.57723 0.112187,0.13162 0.276473,0.1974 0.492993,0.1974 0.131259,0 0.246475,-0.0269 0.345199,-0.0806 0.09985,-0.0548 0.187351,-0.13824 0.262516,-0.25012 v 0.28319 h 0.309542 v -1.84278 h -0.309542 v 1.0449 c 0,0.17988 -0.04864,0.32161 -0.146244,0.42581 -0.09648,0.10421 -0.228683,0.15658 -0.395842,0.15658 -0.139111,0 -0.243086,-0.0436 -0.312642,-0.13022 -0.06956,-0.0878 -0.104386,-0.21886 -0.104386,-0.39326 v -1.10381 z m 6.153629,0.21239 c 0.164914,0 0.295744,0.0639 0.392225,0.19224 0.09648,0.12724 0.144694,0.30004 0.144694,0.51831 0,0.21938 -0.04821,0.39263 -0.144694,0.51987 -0.09648,0.12723 -0.227311,0.1912 -0.392225,0.1912 -0.167157,0 -0.298844,-0.063 -0.395324,-0.18914 -0.09536,-0.12723 -0.143144,-0.30146 -0.143144,-0.52193 0,-0.22047 0.04821,-0.39372 0.144694,-0.51986 0.09648,-0.12725 0.227739,-0.19069 0.393774,-0.19069 z m -8.18503,0.45734 h 0.545187 c 0.182863,0 0.318154,0.0366 0.40566,0.11007 0.08863,0.0724 0.132808,0.18543 0.132808,0.33899 0,0.15247 -0.04418,0.26597 -0.132808,0.34055 -0.08751,0.0735 -0.222797,0.11007 -0.40566,0.11007 h -0.545187 z" />
      <path
         d="m 33.602083,267.36664 c -1.4605,0 -2.645834,1.18533 -2.645834,2.64583 0,1.4605 1.185334,2.64583 2.645834,2.64583 1.4605,0 2.645833,-1.18533 2.645833,-2.64583 0,-1.4605 -1.185333,-2.64583 -2.645833,-2.64583 z m 1.478967,1.21181 0.373116,0.37569 -2.38125,2.38125 -1.322917,-1.32292 0.373116,-0.37312 0.949801,0.94724 z"
         id="path1636"
         style="fill:#e53935;fill-opacity:1;stroke-width:0.264583" />
      <path
         d="m 39.952083,267.36664 c -1.4605,0 -2.645833,1.18533 -2.645833,2.64583 0,1.4605 1.185333,2.64583 2.645833,2.64583 1.4605,0 2.645834,-1.18533 2.645834,-2.64583 0,-1.4605 -1.185334,-2.64583 -2.645834,-2.64583 z m 0,1.85208 c 0.43815,0 0.79375,0.3556 0.79375,0.79375 0,0.43815 -0.3556,0.79375 -0.79375,0.79375 -0.43815,0 -0.79375,-0.3556 -0.79375,-0.79375 0,-0.43815 0.3556,-0.79375 0.79375,-0.79375 z"
         id="path1638"
         style="fill:#e53935;fill-opacity:1;stroke-width:0.264583" />
    </g>
    <g
       id="thumbnail-dark-red"
       transform="translate(261.67292)">
      <rect
         ry="0"
         rx="0"
         y="279.53748"
         x="12.170834"
         height="9.5249987"
         width="31.749998"
         id="rect1642"
         style="fill:#2c2c2c;fill-opacity:1;stroke:#f2f2f2;stroke-width:0;stroke-miterlimit:4;stroke-dasharray:none;stroke-opacity:1" />
      <rect
         ry="1.5874999"
         rx="1.5874999"
         y="281.38956"
         x="13.758333"
         height="5.8208332"
         width="15.875"
         id="rect1644"
         style="opacity:0.1;fill:#ffffff;fill-opacity:1;stroke:none;stroke-width:0.264582;stroke-miterlimit:4;stroke-dasharray:none;stroke-opacity:1" />
      <path
         id="path1646"
         style="font-style:normal;font-variant:normal;font-weight:normal;font-stretch:normal;font-size:3.40857px;line-height:1.25;font-family:Samanata;-inkscape-font-specification:Samanata;letter-spacing:0px;word-spacing:0px;opacity:0.65;fill:#ffffff;fill-opacity:1;stroke:none;stroke-width:0.085194"
         d="m 16.329976,283.04813 v 2.45618 h 0.90227 c 0.281588,0 0.49855,-0.0598 0.651123,-0.17932 0.152573,-0.11955 0.228927,-0.28912 0.228927,-0.50849 0,-0.16673 -0.04693,-0.30521 -0.140044,-0.416 -0.09199,-0.11185 -0.221448,-0.18553 -0.388606,-0.22066 0.139111,-0.0219 0.24446,-0.0775 0.31626,-0.16639 0.0718,-0.0889 0.108003,-0.20837 0.108003,-0.35864 0,-0.19415 -0.07009,-0.34376 -0.210323,-0.44907 -0.140233,-0.10529 -0.339779,-0.15761 -0.59893,-0.15761 z m 4.383711,0.0904 v 0.52297 h -0.226859 v 0.23513 h 0.226859 v 1.00045 c 0,0.23035 0.04556,0.38923 0.136426,0.47698 0.09087,0.0866 0.255587,0.13022 0.494543,0.13022 h 0.318327 v -0.25321 h -0.318327 c -0.129017,0 -0.214721,-0.0213 -0.257348,-0.0641 -0.04151,-0.0428 -0.06201,-0.13963 -0.06201,-0.28991 v -1.00045 h 0.637687 v -0.23513 h -0.637687 v -0.52297 z m 1.703255,0 v 0.52297 h -0.227376 v 0.23513 h 0.227376 v 1.00045 c 0,0.23035 0.04504,0.38923 0.135909,0.47698 0.09087,0.0866 0.256103,0.13022 0.495061,0.13022 h 0.31781 v -0.25321 h -0.31781 c -0.129011,0 -0.214715,-0.0213 -0.257349,-0.0641 -0.04151,-0.0428 -0.06253,-0.13963 -0.06253,-0.28991 v -1.00045 h 0.637688 v -0.23513 h -0.637688 v -0.52297 z m -5.746936,0.18242 h 0.503329 c 0.166036,0 0.289229,0.0306 0.370003,0.092 0.0819,0.0614 0.12299,0.15407 0.12299,0.27802 0,0.12504 -0.04109,0.21866 -0.12299,0.28008 -0.08077,0.0603 -0.203967,0.0904 -0.370003,0.0904 h -0.503329 z m 8.18503,0.29611 c -0.270369,0 -0.482441,0.0857 -0.636137,0.25683 -0.152574,0.17111 -0.228926,0.40781 -0.228926,0.71055 0,0.30164 0.07635,0.53886 0.228926,0.71107 0.153696,0.17111 0.365768,0.25631 0.636137,0.25631 0.269248,0 0.480892,-0.0852 0.634587,-0.25631 0.153696,-0.17221 0.230477,-0.40943 0.230477,-0.71107 0,-0.30274 -0.07678,-0.53944 -0.230477,-0.71055 -0.153695,-0.17111 -0.365339,-0.25683 -0.634587,-0.25683 z m 2.123902,0 c -0.131258,0 -0.24733,0.0273 -0.348301,0.0822 -0.09984,0.0548 -0.186922,0.13778 -0.260964,0.24857 v -0.28629 H 26.05858 v 1.84278 h 0.311093 v -1.04128 c 0,-0.17988 0.04821,-0.32212 0.144693,-0.42633 0.09648,-0.1042 0.228166,-0.15606 0.395325,-0.15606 0.139112,0 0.243604,0.043 0.313161,0.12971 0.06955,0.0867 0.104386,0.2173 0.104386,0.3917 v 1.10226 h 0.309541 v -1.11208 c 0,-0.25447 -0.05533,-0.44721 -0.166399,-0.57774 -0.111064,-0.13162 -0.274923,-0.1974 -0.491442,-0.1974 z m -8.277531,0.0444 v 1.11569 c 0,0.25338 0.05576,0.44561 0.167948,0.57723 0.112187,0.13162 0.276473,0.1974 0.492993,0.1974 0.131259,0 0.246475,-0.0269 0.345199,-0.0806 0.09985,-0.0548 0.187351,-0.13824 0.262516,-0.25012 v 0.28319 h 0.309542 v -1.84278 h -0.309542 v 1.0449 c 0,0.17988 -0.04864,0.32161 -0.146244,0.42581 -0.09648,0.10421 -0.228683,0.15658 -0.395842,0.15658 -0.139111,0 -0.243086,-0.0436 -0.312642,-0.13022 -0.06956,-0.0878 -0.104386,-0.21886 -0.104386,-0.39326 v -1.10381 z m 6.153629,0.21239 c 0.164914,0 0.295744,0.0639 0.392225,0.19224 0.09648,0.12724 0.144694,0.30004 0.144694,0.51831 0,0.21938 -0.04821,0.39263 -0.144694,0.51987 -0.09648,0.12723 -0.227311,0.1912 -0.392225,0.1912 -0.167157,0 -0.298844,-0.063 -0.395324,-0.18914 -0.09536,-0.12723 -0.143144,-0.30146 -0.143144,-0.52193 0,-0.22047 0.04821,-0.39372 0.144694,-0.51986 0.09648,-0.12725 0.227739,-0.19069 0.393774,-0.19069 z m -8.18503,0.45734 h 0.545187 c 0.182863,0 0.318154,0.0366 0.40566,0.11007 0.08863,0.0724 0.132808,0.18543 0.132808,0.33899 0,0.15247 -0.04418,0.26597 -0.132808,0.34055 -0.08751,0.0735 -0.222797,0.11007 -0.40566,0.11007 h -0.545187 z" />
      <path
         d="m 33.602083,281.65414 c -1.4605,0 -2.645834,1.18533 -2.645834,2.64583 0,1.4605 1.185334,2.64583 2.645834,2.64583 1.4605,0 2.645833,-1.18533 2.645833,-2.64583 0,-1.4605 -1.185333,-2.64583 -2.645833,-2.64583 z m 1.478967,1.21181 0.373116,0.37569 -2.38125,2.38125 -1.322917,-1.32292 0.373116,-0.37312 0.949801,0.94724 z"
         id="path1648"
         style="fill:#e53935;fill-opacity:1;stroke-width:0.264583" />
      <path
         d="m 39.952083,281.65414 c -1.4605,0 -2.645833,1.18533 -2.645833,2.64583 0,1.4605 1.185333,2.64583 2.645833,2.64583 1.4605,0 2.645834,-1.18533 2.645834,-2.64583 0,-1.4605 -1.185334,-2.64583 -2.645834,-2.64583 z m 0,1.85208 c 0.43815,0 0.79375,0.3556 0.79375,0.79375 0,0.43815 -0.3556,0.79375 -0.79375,0.79375 -0.43815,0 -0.79375,-0.3556 -0.79375,-0.79375 0,-0.43815 0.3556,-0.79375 0.79375,-0.79375 z"
         id="path1650"
         style="fill:#e53935;fill-opacity:1;stroke-width:0.264583" />
    </g>
    <g
       id="thumbnail-orange"
       transform="translate(305.32917)">
      <rect
         ry="0"
         rx="0"
         y="265.24997"
         x="12.170834"
         height="9.5249987"
         width="31.749998"
         id="rect1654"
         style="fill:#f2f2f2;fill-opacity:1;stroke:#f2f2f2;stroke-width:0;stroke-miterlimit:4;stroke-dasharray:none;stroke-opacity:1" />
      <rect
         ry="1.5874999"
         rx="1.5874999"
         y="267.10205"
         x="13.758333"
         height="5.8208332"
         width="15.875"
         id="rect1656"
         style="opacity:0.08;fill:#000000;fill-opacity:1;stroke:none;stroke-width:0.264582;stroke-miterlimit:4;stroke-dasharray:none;stroke-opacity:1" />
      <path
         id="path1658"
         style="font-style:normal;font-variant:normal;font-weight:normal;font-stretch:normal;font-size:3.40857px;line-height:1.25;font-family:Samanata;-inkscape-font-specification:Samanata;letter-spacing:0px;word-spacing:0px;opacity:0.65;fill:#000000;fill-opacity:1;stroke:none;stroke-width:0.085194"
         d="m 16.329976,268.76062 v 2.45618 h 0.90227 c 0.281588,0 0.49855,-0.0598 0.651123,-0.17932 0.152573,-0.11955 0.228927,-0.28912 0.228927,-0.50849 0,-0.16673 -0.04693,-0.30521 -0.140044,-0.416 -0.09199,-0.11185 -0.221448,-0.18553 -0.388606,-0.22066 0.139111,-0.0219 0.24446,-0.0776 0.31626,-0.16639 0.0718,-0.0889 0.108003,-0.20837 0.108003,-0.35864 0,-0.19415 -0.07009,-0.34376 -0.210323,-0.44907 -0.140233,-0.10529 -0.339779,-0.15761 -0.59893,-0.15761 z m 4.383711,0.0904 v 0.52297 h -0.226859 v 0.23513 h 0.226859 v 1.00045 c 0,0.23035 0.04556,0.38923 0.136426,0.47698 0.09087,0.0866 0.255587,0.13022 0.494543,0.13022 h 0.318327 v -0.25321 h -0.318327 c -0.129017,0 -0.214721,-0.0213 -0.257348,-0.0641 -0.04151,-0.0428 -0.06201,-0.13963 -0.06201,-0.28991 v -1.00045 h 0.637687 v -0.23513 H 21.025298 V 268.851 Z m 1.703255,0 v 0.52297 h -0.227376 v 0.23513 h 0.227376 v 1.00045 c 0,0.23035 0.04504,0.38923 0.135909,0.47698 0.09087,0.0866 0.256103,0.13022 0.495061,0.13022 h 0.31781 v -0.25321 h -0.31781 c -0.129011,0 -0.214715,-0.0213 -0.257349,-0.0641 -0.04151,-0.0428 -0.06253,-0.13963 -0.06253,-0.28991 v -1.00045 h 0.637688 v -0.23513 H 22.728033 V 268.851 Z m -5.746936,0.18242 h 0.503329 c 0.166036,0 0.289229,0.0306 0.370003,0.092 0.0819,0.0614 0.12299,0.15407 0.12299,0.27802 0,0.12504 -0.04109,0.21866 -0.12299,0.28008 -0.08077,0.0603 -0.203967,0.0904 -0.370003,0.0904 h -0.503329 z m 8.18503,0.29611 c -0.270369,0 -0.482441,0.0857 -0.636137,0.25683 -0.152574,0.17111 -0.228926,0.40781 -0.228926,0.71055 0,0.30164 0.07635,0.53886 0.228926,0.71107 0.153696,0.17111 0.365768,0.25631 0.636137,0.25631 0.269248,0 0.480892,-0.0852 0.634587,-0.25631 0.153696,-0.17221 0.230477,-0.40943 0.230477,-0.71107 0,-0.30274 -0.07678,-0.53944 -0.230477,-0.71055 -0.153695,-0.17111 -0.365339,-0.25683 -0.634587,-0.25683 z m 2.123902,0 c -0.131258,0 -0.24733,0.0273 -0.348301,0.0822 -0.09984,0.0548 -0.186922,0.13778 -0.260964,0.24857 v -0.28629 H 26.05858 v 1.84278 h 0.311093 v -1.04128 c 0,-0.17988 0.04821,-0.32212 0.144693,-0.42633 0.09648,-0.1042 0.228166,-0.15606 0.395325,-0.15606 0.139112,0 0.243604,0.043 0.313161,0.12971 0.06955,0.0867 0.104386,0.2173 0.104386,0.3917 v 1.10226 h 0.309541 v -1.11208 c 0,-0.25447 -0.05533,-0.44721 -0.166399,-0.57774 -0.111064,-0.13162 -0.274923,-0.1974 -0.491442,-0.1974 z m -8.277531,0.0444 v 1.11569 c 0,0.25338 0.05576,0.44561 0.167948,0.57723 0.112187,0.13162 0.276473,0.1974 0.492993,0.1974 0.131259,0 0.246475,-0.0269 0.345199,-0.0806 0.09985,-0.0548 0.187351,-0.13824 0.262516,-0.25012 v 0.28319 h 0.309542 v -1.84278 h -0.309542 v 1.0449 c 0,0.17988 -0.04864,0.32161 -0.146244,0.42581 -0.09648,0.10421 -0.228683,0.15658 -0.395842,0.15658 -0.139111,0 -0.243086,-0.0436 -0.312642,-0.13022 -0.06956,-0.0878 -0.104386,-0.21886 -0.104386,-0.39326 v -1.10381 z m 6.153629,0.21239 c 0.164914,0 0.295744,0.0639 0.392225,0.19224 0.09648,0.12724 0.144694,0.30004 0.144694,0.51831 0,0.21938 -0.04821,0.39263 -0.144694,0.51987 -0.09648,0.12723 -0.227311,0.1912 -0.392225,0.1912 -0.167157,0 -0.298844,-0.063 -0.395324,-0.18914 -0.09536,-0.12723 -0.143144,-0.30146 -0.143144,-0.52193 0,-0.22047 0.04821,-0.39372 0.144694,-0.51986 0.09648,-0.12725 0.227739,-0.19069 0.393774,-0.19069 z m -8.18503,0.45734 h 0.545187 c 0.182863,0 0.318154,0.0366 0.40566,0.11007 0.08863,0.0724 0.132808,0.18543 0.132808,0.33899 0,0.15247 -0.04418,0.26597 -0.132808,0.34055 -0.08751,0.0735 -0.222797,0.11007 -0.40566,0.11007 h -0.545187 z" />
      <path
         d="m 33.602083,267.36664 c -1.4605,0 -2.645834,1.18533 -2.645834,2.64583 0,1.4605 1.185334,2.64583 2.645834,2.64583 1.4605,0 2.645833,-1.18533 2.645833,-2.64583 0,-1.4605 -1.185333,-2.64583 -2.645833,-2.64583 z m 1.478967,1.21181 0.373116,0.37569 -2.38125,2.38125 -1.322917,-1.32292 0.373116,-0.37312 0.949801,0.94724 z"
         id="path1660"
         style="fill:#f57c00;fill-opacity:1;stroke-width:0.264583" />
      <path
         d="m 39.952083,267.36664 c -1.4605,0 -2.645833,1.18533 -2.645833,2.64583 0,1.4605 1.185333,2.64583 2.645833,2.64583 1.4605,0 2.645834,-1.18533 2.645834,-2.64583 0,-1.4605 -1.185334,-2.64583 -2.645834,-2.64583 z m 0,1.85208 c 0.43815,0 0.79375,0.3556 0.79375,0.79375 0,0.43815 -0.3556,0.79375 -0.79375,0.79375 -0.43815,0 -0.79375,-0.3556 -0.79375,-0.79375 0,-0.43815 0.3556,-0.79375 0.79375,-0.79375 z"
         id="path1662"
         style="fill:#f57c00;fill-opacity:1;stroke-width:0.264583" />
    </g>
    <g
       id="thumbnail-orange-dark"
       transform="translate(305.32917)">
      <rect
         ry="0"
         rx="0"
         y="279.53748"
         x="12.170834"
         height="9.5249987"
         width="31.749998"
         id="rect1666"
         style="fill:#2c2c2c;fill-opacity:1;stroke:#f2f2f2;stroke-width:0;stroke-miterlimit:4;stroke-dasharray:none;stroke-opacity:1" />
      <rect
         ry="1.5874999"
         rx="1.5874999"
         y="281.38956"
         x="13.758333"
         height="5.8208332"
         width="15.875"
         id="rect1668"
         style="opacity:0.1;fill:#ffffff;fill-opacity:1;stroke:none;stroke-width:0.264582;stroke-miterlimit:4;stroke-dasharray:none;stroke-opacity:1" />
      <path
         id="path1670"
         style="font-style:normal;font-variant:normal;font-weight:normal;font-stretch:normal;font-size:3.40857px;line-height:1.25;font-family:Samanata;-inkscape-font-specification:Samanata;letter-spacing:0px;word-spacing:0px;opacity:0.65;fill:#ffffff;fill-opacity:1;stroke:none;stroke-width:0.085194"
         d="m 16.329976,283.04813 v 2.45618 h 0.90227 c 0.281588,0 0.49855,-0.0598 0.651123,-0.17932 0.152573,-0.11955 0.228927,-0.28912 0.228927,-0.50849 0,-0.16673 -0.04693,-0.30521 -0.140044,-0.416 -0.09199,-0.11185 -0.221448,-0.18553 -0.388606,-0.22066 0.139111,-0.0219 0.24446,-0.0775 0.31626,-0.16639 0.0718,-0.0889 0.108003,-0.20837 0.108003,-0.35864 0,-0.19415 -0.07009,-0.34376 -0.210323,-0.44907 -0.140233,-0.10529 -0.339779,-0.15761 -0.59893,-0.15761 z m 4.383711,0.0904 v 0.52297 h -0.226859 v 0.23513 h 0.226859 v 1.00045 c 0,0.23035 0.04556,0.38923 0.136426,0.47698 0.09087,0.0866 0.255587,0.13022 0.494543,0.13022 h 0.318327 v -0.25321 h -0.318327 c -0.129017,0 -0.214721,-0.0213 -0.257348,-0.0641 -0.04151,-0.0428 -0.06201,-0.13963 -0.06201,-0.28991 v -1.00045 h 0.637687 v -0.23513 h -0.637687 v -0.52297 z m 1.703255,0 v 0.52297 h -0.227376 v 0.23513 h 0.227376 v 1.00045 c 0,0.23035 0.04504,0.38923 0.135909,0.47698 0.09087,0.0866 0.256103,0.13022 0.495061,0.13022 h 0.31781 v -0.25321 h -0.31781 c -0.129011,0 -0.214715,-0.0213 -0.257349,-0.0641 -0.04151,-0.0428 -0.06253,-0.13963 -0.06253,-0.28991 v -1.00045 h 0.637688 v -0.23513 h -0.637688 v -0.52297 z m -5.746936,0.18242 h 0.503329 c 0.166036,0 0.289229,0.0306 0.370003,0.092 0.0819,0.0614 0.12299,0.15407 0.12299,0.27802 0,0.12504 -0.04109,0.21866 -0.12299,0.28008 -0.08077,0.0603 -0.203967,0.0904 -0.370003,0.0904 h -0.503329 z m 8.18503,0.29611 c -0.270369,0 -0.482441,0.0857 -0.636137,0.25683 -0.152574,0.17111 -0.228926,0.40781 -0.228926,0.71055 0,0.30164 0.07635,0.53886 0.228926,0.71107 0.153696,0.17111 0.365768,0.25631 0.636137,0.25631 0.269248,0 0.480892,-0.0852 0.634587,-0.25631 0.153696,-0.17221 0.230477,-0.40943 0.230477,-0.71107 0,-0.30274 -0.07678,-0.53944 -0.230477,-0.71055 -0.153695,-0.17111 -0.365339,-0.25683 -0.634587,-0.25683 z m 2.123902,0 c -0.131258,0 -0.24733,0.0273 -0.348301,0.0822 -0.09984,0.0548 -0.186922,0.13778 -0.260964,0.24857 v -0.28629 H 26.05858 v 1.84278 h 0.311093 v -1.04128 c 0,-0.17988 0.04821,-0.32212 0.144693,-0.42633 0.09648,-0.1042 0.228166,-0.15606 0.395325,-0.15606 0.139112,0 0.243604,0.043 0.313161,0.12971 0.06955,0.0867 0.104386,0.2173 0.104386,0.3917 v 1.10226 h 0.309541 v -1.11208 c 0,-0.25447 -0.05533,-0.44721 -0.166399,-0.57774 -0.111064,-0.13162 -0.274923,-0.1974 -0.491442,-0.1974 z m -8.277531,0.0444 v 1.11569 c 0,0.25338 0.05576,0.44561 0.167948,0.57723 0.112187,0.13162 0.276473,0.1974 0.492993,0.1974 0.131259,0 0.246475,-0.0269 0.345199,-0.0806 0.09985,-0.0548 0.187351,-0.13824 0.262516,-0.25012 v 0.28319 h 0.309542 v -1.84278 h -0.309542 v 1.0449 c 0,0.17988 -0.04864,0.32161 -0.146244,0.42581 -0.09648,0.10421 -0.228683,0.15658 -0.395842,0.15658 -0.139111,0 -0.243086,-0.0436 -0.312642,-0.13022 -0.06956,-0.0878 -0.104386,-0.21886 -0.104386,-0.39326 v -1.10381 z m 6.153629,0.21239 c 0.164914,0 0.295744,0.0639 0.392225,0.19224 0.09648,0.12724 0.144694,0.30004 0.144694,0.51831 0,0.21938 -0.04821,0.39263 -0.144694,0.51987 -0.09648,0.12723 -0.227311,0.1912 -0.392225,0.1912 -0.167157,0 -0.298844,-0.063 -0.395324,-0.18914 -0.09536,-0.12723 -0.143144,-0.30146 -0.143144,-0.52193 0,-0.22047 0.04821,-0.39372 0.144694,-0.51986 0.09648,-0.12725 0.227739,-0.19069 0.393774,-0.19069 z m -8.18503,0.45734 h 0.545187 c 0.182863,0 0.318154,0.0366 0.40566,0.11007 0.08863,0.0724 0.132808,0.18543 0.132808,0.33899 0,0.15247 -0.04418,0.26597 -0.132808,0.34055 -0.08751,0.0735 -0.222797,0.11007 -0.40566,0.11007 h -0.545187 z" />
      <path
         d="m 33.602083,281.65414 c -1.4605,0 -2.645834,1.18533 -2.645834,2.64583 0,1.4605 1.185334,2.64583 2.645834,2.64583 1.4605,0 2.645833,-1.18533 2.645833,-2.64583 0,-1.4605 -1.185333,-2.64583 -2.645833,-2.64583 z m 1.478967,1.21181 0.373116,0.37569 -2.38125,2.38125 -1.322917,-1.32292 0.373116,-0.37312 0.949801,0.94724 z"
         id="path1672"
         style="fill:#f57c00;fill-opacity:1;stroke-width:0.264583" />
      <path
         d="m 39.952083,281.65414 c -1.4605,0 -2.645833,1.18533 -2.645833,2.64583 0,1.4605 1.185333,2.64583 2.645833,2.64583 1.4605,0 2.645834,-1.18533 2.645834,-2.64583 0,-1.4605 -1.185334,-2.64583 -2.645834,-2.64583 z m 0,1.85208 c 0.43815,0 0.79375,0.3556 0.79375,0.79375 0,0.43815 -0.3556,0.79375 -0.79375,0.79375 -0.43815,0 -0.79375,-0.3556 -0.79375,-0.79375 0,-0.43815 0.3556,-0.79375 0.79375,-0.79375 z"
         id="path1674"
         style="fill:#f57c00;fill-opacity:1;stroke-width:0.264583" />
    </g>
  </g>
</svg>
