<?xml version="1.0" encoding="UTF-8" standalone="no"?>
<svg
   xmlns:dc="http://purl.org/dc/elements/1.1/"
   xmlns:cc="http://creativecommons.org/ns#"
   xmlns:rdf="http://www.w3.org/1999/02/22-rdf-syntax-ns#"
   xmlns:svg="http://www.w3.org/2000/svg"
   xmlns="http://www.w3.org/2000/svg"
   xmlns:sodipodi="http://sodipodi.sourceforge.net/DTD/sodipodi-0.dtd"
   xmlns:inkscape="http://www.inkscape.org/namespaces/inkscape"
   inkscape:version="1.0 (4035a4fb49, 2020-05-01)"
   sodipodi:docname="view-restore-symbolic-dark.svg"
   id="svg14"
   version="1.1"
   height="16.01"
   width="16.014">
  <metadata
     id="metadata20">
    <rdf:RDF>
      <cc:Work
         rdf:about="">
        <dc:format>image/svg+xml</dc:format>
        <dc:type
           rdf:resource="http://purl.org/dc/dcmitype/StillImage" />
        <dc:title></dc:title>
      </cc:Work>
    </rdf:RDF>
  </metadata>
  <defs
     id="defs18" />
  <sodipodi:namedview
     inkscape:current-layer="svg14"
     inkscape:window-maximized="1"
     inkscape:window-y="28"
     inkscape:window-x="0"
     inkscape:cy="8.0050001"
     inkscape:cx="8.0564136"
     inkscape:zoom="40.474703"
     showgrid="false"
     id="namedview16"
     inkscape:window-height="1016"
     inkscape:window-width="1920"
     inkscape:pageshadow="2"
     inkscape:pageopacity="0"
     guidetolerance="10"
     gridtolerance="10"
     objecttolerance="10"
     borderopacity="1"
     bordercolor="#666666"
     pagecolor="#ffffff" />
  <g
     style="fill:#cccccc"
     id="g12"
     fill="#474747"
     color="#000">
    <path
       id="path2"
       overflow="visible"
       white-space="normal"
       font-family="sans-serif"
       font-weight="400"
       style="line-height:normal;font-variant-ligatures:normal;font-variant-position:normal;font-variant-caps:normal;font-variant-numeric:normal;font-variant-alternates:normal;font-feature-settings:normal;text-indent:0;text-align:start;text-decoration-line:none;text-decoration-style:solid;text-decoration-color:#000;text-transform:none;text-orientation:mixed;shape-padding:0;isolation:auto;mix-blend-mode:normal;marker:none;fill:#cccccc"
       d="M12 1.006l-2 .008.018 4.996H15v-2h-2.99z" />
    <path
       id="path4"
       overflow="visible"
       white-space="normal"
       font-family="sans-serif"
       font-weight="400"
       style="line-height:normal;font-variant-ligatures:normal;font-variant-position:normal;font-variant-caps:normal;font-variant-numeric:normal;font-variant-alternates:normal;font-feature-settings:normal;text-indent:0;text-align:start;text-decoration-line:none;text-decoration-style:solid;text-decoration-color:#000;text-transform:none;text-orientation:mixed;shape-padding:0;isolation:auto;mix-blend-mode:normal;marker:none;fill:#cccccc"
       d="M14.979 0a1 1 0 0 0-.688.305l-3.984 4a1 1 0 1 0 1.416 1.41l3.986-4A1 1 0 0 0 14.979 0zM1.014 6.01a1 1 0 0 0-1 1v8a1 1 0 0 0 1 1h8a1 1 0 0 0 1-1v-8a1 1 0 0 0-1-1zm1 2h6v6h-6z" />
    <path
       id="path6"
       fill-rule="evenodd"
       overflow="visible"
       white-space="normal"
       font-family="sans-serif"
       font-weight="400"
       style="line-height:normal;font-variant-ligatures:normal;font-variant-position:normal;font-variant-caps:normal;font-variant-numeric:normal;font-variant-alternates:normal;font-feature-settings:normal;text-indent:0;text-align:start;text-decoration-line:none;text-decoration-style:solid;text-decoration-color:#000;text-transform:none;text-orientation:mixed;shape-padding:0;isolation:auto;mix-blend-mode:normal;marker:none;fill:#cccccc"
       d="M1.014 8.01a1 1 0 1 0 0 2h8a1 1 0 1 0 0-2z" />
    <path
       id="path8"
       overflow="visible"
       style="marker:none;fill:#cccccc"
       d="M15 5.01h1v1h-1zM10 .01h1v1h-1zM9.014 15.01h1v1h-1zM.014 15.01h1v1h-1z" />
    <path
       id="path10"
       overflow="visible"
       style="marker:none;fill:#cccccc"
       d="M11 .01c.554 0 1 .446 1 1s-.446 1-1 1-1-.446-1-1 .446-1 1-1zM15 4.01c.554 0 1 .446 1 1s-.446 1-1 1-1-.446-1-1 .446-1 1-1z" />
  </g>
</svg>
