<svg xmlns="http://www.w3.org/2000/svg" width="34" height="36"><g transform="translate(-255 -694.362)"><path d="M255 694.362h34v36h-34z" style="fill:none"/><path d="M272 725.362c6.627 0 12-5.373 12-12s-5.373-12-12-12-12 5.373-12 12 5.373 12 12 12" style="opacity:.15;fill:#fff;fill-opacity:1;fill-rule:evenodd;stroke:none;stroke-width:1.71429"/><path d="M272 707.362a6 6 0 0 0-6 6 6 6 0 0 0 6 6 6 6 0 0 0 6-6 6 6 0 0 0-6-6m0 2a4 4 0 0 1 4 4 4 4 0 0 1-4 4 4 4 0 0 1-4-4 4 4 0 0 1 4-4" style="opacity:1;fill:#fff"/><circle cx="272" cy="713.362" r="2" style="opacity:1;fill:#fff"/></g></svg>