/* XPM */
static char *button_inactive[] = {
/* columns rows colors chars-per-pixel */
"68 68 2 1 ",
"  c None",
". c gray20 s inactive_color_1",
/* pixels */
"                                                                    ",
"                                                                    ",
"                                                                    ",
"                                                                    ",
"                                                                    ",
"                                                                    ",
"                            ............                            ",
"                            ............                            ",
"                        ....................                        ",
"                        ....................                        ",
"                    ............................                    ",
"                    ............................                    ",
"                ....................................                ",
"                ....................................                ",
"              ........................................              ",
"              ........................................              ",
"            ............................................            ",
"            ............................................            ",
"            ............................................            ",
"            ............................................            ",
"          ................................................          ",
"          ................................................          ",
"          ................................................          ",
"          ................................................          ",
"        ....................................................        ",
"        ....................................................        ",
"        ....................................................        ",
"        ....................................................        ",
"      ........................................................      ",
"      ........................................................      ",
"      ........................................................      ",
"      ........................................................      ",
"      ........................................................      ",
"      ........................................................      ",
"      ........................................................      ",
"      ........................................................      ",
"      ........................................................      ",
"      ........................................................      ",
"      ........................................................      ",
"      ........................................................      ",
"        ....................................................        ",
"        ....................................................        ",
"        ....................................................        ",
"        ....................................................        ",
"          ................................................          ",
"          ................................................          ",
"          ................................................          ",
"          ................................................          ",
"            ............................................            ",
"            ............................................            ",
"            ............................................            ",
"            ............................................            ",
"              ........................................              ",
"              ........................................              ",
"                ....................................                ",
"                ....................................                ",
"                    ............................                    ",
"                    ............................                    ",
"                        ....................                        ",
"                        ....................                        ",
"                            ............                            ",
"                            ............                            ",
"                                                                    ",
"                                                                    ",
"                                                                    ",
"                                                                    ",
"                                                                    ",
"                                                                    "
};
