/* XPM */
static char *top_right_active[] = {
/* columns rows colors chars-per-pixel */
"16 68 2 1 ",
"  c None",
". c #2C2C2C s active_color_2",
/* pixels */
"......          ",
"......          ",
"..........      ",
"..........      ",
"............    ",
"............    ",
"..............  ",
"..............  ",
"..............  ",
"..............  ",
"................",
"................",
"................",
"................",
"................",
"................",
"................",
"................",
"................",
"................",
"................",
"................",
"................",
"................",
"................",
"................",
"................",
"................",
"................",
"................",
"................",
"................",
"................",
"................",
"................",
"................",
"................",
"................",
"................",
"................",
"................",
"................",
"................",
"................",
"................",
"................",
"................",
"................",
"................",
"................",
"................",
"................",
"................",
"................",
"................",
"................",
"................",
"................",
"................",
"................",
"................",
"................",
"................",
"................",
"................",
"................",
"................",
"................"
};
