/* XPM */
static char *top_left_inactive[] = {
/* columns rows colors chars-per-pixel */
"16 68 2 1 ",
"  c None",
". c gray20 s inactive_color_1",
/* pixels */
"          ......",
"          ......",
"      ..........",
"      ..........",
"    ............",
"    ............",
"  ..............",
"  ..............",
"  ..............",
"  ..............",
"................",
"................",
"................",
"................",
"................",
"................",
"................",
"................",
"................",
"................",
"................",
"................",
"................",
"................",
"................",
"................",
"................",
"................",
"................",
"................",
"................",
"................",
"................",
"................",
"................",
"................",
"................",
"................",
"................",
"................",
"................",
"................",
"................",
"................",
"................",
"................",
"................",
"................",
"................",
"................",
"................",
"................",
"................",
"................",
"................",
"................",
"................",
"................",
"................",
"................",
"................",
"................",
"................",
"................",
"................",
"................",
"................",
"................"
};
