<svg xmlns="http://www.w3.org/2000/svg" width="32" height="34"><g transform="translate(-61 -585.362)"><path d="M21 585.362h32v34H21z" style="fill:none" transform="translate(40)"/><circle cx="77" cy="602.362" r="8" style="opacity:1;fill:#fd5f51;fill-opacity:1;stroke-width:8;stroke-linecap:round;stroke-linejoin:round;paint-order:stroke fill markers"/><path fill="#363636" d="M73.465 598.327a.499.499 0 0 0-.353.854l3.181 3.181-3.182 3.182a.499.499 0 1 0 .707.707L77 603.069l3.182 3.182a.499.499 0 1 0 .707-.707l-3.182-3.182 3.182-3.181a.499.499 0 1 0-.707-.708L77 601.655l-3.182-3.182a.5.5 0 0 0-.353-.146z" style="fill:#fafafa;paint-order:stroke fill markers"/></g></svg>