<svg xmlns="http://www.w3.org/2000/svg" width="32" height="34"><g transform="translate(-101 -585.362)"><path d="M21 585.362h32v34H21z" style="fill:none" transform="translate(80)"/><circle cx="117" cy="602.362" r="8" style="opacity:1;fill:#fd5f51;fill-opacity:1;stroke-width:8;stroke-linecap:round;stroke-linejoin:round;paint-order:stroke fill markers"/><circle cx="117" cy="602.362" r="8" style="opacity:.25;fill:#000;fill-opacity:1;stroke-width:8;stroke-linecap:round;stroke-linejoin:round;paint-order:stroke fill markers"/><path fill="#363636" d="M113.465 598.327a.499.499 0 0 0-.353.854l3.18 3.181-3.18 3.182a.499.499 0 1 0 .706.707l3.182-3.182 3.182 3.182a.499.499 0 1 0 .707-.707l-3.182-3.182 3.182-3.181a.499.499 0 1 0-.707-.708L117 601.655l-3.182-3.182a.5.5 0 0 0-.353-.146z" style="fill:#fafafa;paint-order:stroke fill markers"/></g></svg>