<svg xmlns="http://www.w3.org/2000/svg" width="32" height="34"><g transform="translate(-61 -626.362)"><path d="M21 585.362h32v34H21z" style="fill:none" transform="translate(40 41)"/><circle cx="77" cy="643.362" r="8" style="opacity:1;fill:#38c76a;fill-opacity:1;stroke-width:8;stroke-linecap:round;stroke-linejoin:round;paint-order:stroke fill markers"/><path fill="#363636" d="M75 639.362c-1.108 0-2 .892-2 2v4c0 1.108.892 2 2 2h4c1.108 0 2-.892 2-2v-4c0-1.108-.892-2-2-2zm0 1h4c.554 0 1 .446 1 1v4c0 .554-.446 1-1 1h-4c-.554 0-1-.446-1-1v-4c0-.554.446-1 1-1" style="fill:#fafafa;paint-order:stroke fill markers"/></g></svg>