<svg xmlns="http://www.w3.org/2000/svg" width="32" height="34"><g transform="translate(-251 -730.362)"><path d="M21 585.362h32v34H21z" style="fill:none" transform="translate(230 145)"/><circle cx="267" cy="747.362" r="10" style="opacity:.15;fill:#000;fill-opacity:1;stroke-width:9.99991;stroke-linecap:round;stroke-linejoin:round;paint-order:stroke fill markers"/><path d="M267 741.362a6 6 0 0 0-6 6 6 6 0 0 0 6 6 6 6 0 0 0 6-6 6 6 0 0 0-6-6m0 1a5 5 0 0 1 5 5 5 5 0 0 1-5 5 5 5 0 0 1-5-5 5 5 0 0 1 5-5m0 3a2 2 0 0 0-2 2 2 2 0 0 0 2 2 2 2 0 0 0 2-2 2 2 0 0 0-2-2" style="opacity:.65;fill:#000"/></g></svg>