<?xml version="1.0" encoding="UTF-8" standalone="no"?>
<svg
   width="150"
   height="150"
   version="1.1"
   viewBox="0 0 39.687 39.688"
   id="svg120"
   sodipodi:docname="thumbnail.svg"
   inkscape:version="1.1.2 (0a00cf5339, 2022-02-04, custom)"
   xmlns:inkscape="http://www.inkscape.org/namespaces/inkscape"
   xmlns:sodipodi="http://sodipodi.sourceforge.net/DTD/sodipodi-0.dtd"
   xmlns="http://www.w3.org/2000/svg"
   xmlns:svg="http://www.w3.org/2000/svg"
   xmlns:rdf="http://www.w3.org/1999/02/22-rdf-syntax-ns#"
   xmlns:cc="http://creativecommons.org/ns#"
   xmlns:dc="http://purl.org/dc/elements/1.1/">
  <g
     id="thumbnail-Dark">
    <g
       id="g1287"
       transform="translate(0,13.229334)">
      <rect
         style="fill:#e6e6e6;stroke-width:0.435626;stroke-linecap:round;stroke-linejoin:round;stroke-miterlimit:2"
         id="rect1279"
         width="26.458666"
         height="8.466773"
         x="6.0849934"
         y="6.6146665" />
      <path
         d="m 6.0854923,7.67315 23.8119997,-10e-6 c 0.87948,0 1.5875,0.70803 1.5875,1.5875 v 4.2333 l 1e-6,1.5875 H 6.0849933 v -1.5875 -4.2333 z"
         fill="url(#linearGradient1094)"
         style="opacity:0.35;fill:#000000;paint-order:stroke fill markers;filter:url(#filter1113)"
         id="path1281"
         clip-path="url(#clipPath1121)" />
      <path
         d="m 6.0854923,7.67315 23.8119997,-10e-6 c 0.87948,0 1.5875,0.70803 1.5875,1.5875 v 4.2333 l 1e-6,1.5875 H 6.0849933 v -1.5875 -4.2333 z"
         fill="url(#linearGradient1094)"
         style="fill:#2c2c2c;paint-order:stroke fill markers;fill-opacity:1"
         id="path1283" />
      <g
         id="g1285"
         clip-path="url(#clipPath1084)"
         transform="translate(-0.26460452,-255.72699)"
         style="opacity:0.15" />
      <path
         id="path1307"
         style="fill:#ffffff;fill-opacity:1;stroke-width:3.77948;paint-order:stroke fill markers;opacity:0.1"
         d="M 23.001953 79 L 23.001953 80 L 112.99805 80 C 116.32202 80 118.99805 82.676061 118.99805 86 L 118.99805 85 C 118.99805 81.676061 116.32202 79 112.99805 79 L 23.001953 79 z "
         transform="matrix(0.26458667,0,0,0.26458667,-5e-4,-13.229334)" />
    </g>
    <g
       id="g1293"
       transform="translate(-28.839947,7.9376041)"
       style="opacity:0.8;fill:#ffffff">
      <path
         inkscape:connector-curvature="0"
         id="path1289"
         d="m 42.068808,20.108583 c 1.753497,0 3.175012,-1.42151 3.175012,-3.17504 0,-1.753527 -1.421515,-3.17504 -3.175012,-3.17504 -1.753549,0 -3.175068,1.421513 -3.175068,3.17504 0,1.75353 1.421519,3.17504 3.175068,3.17504"
         style="opacity:0.15;fill:none;fill-opacity:1;fill-rule:evenodd;stroke:none;stroke-width:0.453576" />
      <path
         inkscape:connector-curvature="0"
         d="m 41.010433,17.198135 h 2.116694 v 0.529174 h -2.116694 z"
         id="path1291"
         style="opacity:1;fill:#ffffff;stroke-width:0.264587" />
    </g>
    <g
       id="g1299"
       style="opacity:0.8;fill:#ffffff"
       transform="translate(-21.696107,-2.1166942)">
      <path
         inkscape:connector-curvature="0"
         id="path1295"
         d="m 42.068808,30.162874 c 1.753496,0 3.175012,-1.421511 3.175012,-3.17504 0,-1.753527 -1.421516,-3.17504 -3.175012,-3.17504 -1.753549,0 -3.175068,1.421513 -3.175068,3.17504 0,1.753529 1.421519,3.17504 3.175068,3.17504"
         style="opacity:0.15;fill:none;fill-opacity:1;fill-rule:evenodd;stroke:none;stroke-width:0.453576" />
      <path
         inkscape:connector-curvature="0"
         d="m 41.010433,25.929495 v 2.116693 h 2.116694 v -2.116693 z m 0.529174,0.529173 h 1.058346 v 1.058347 h -1.058346 z"
         id="path1297"
         style="opacity:1;fill:#ffffff;stroke-width:0.264587" />
    </g>
    <g
       id="g1305"
       transform="translate(1.4314137,3.7042141)"
       style="opacity:0.8;fill:#ffffff">
      <path
         inkscape:connector-curvature="0"
         id="path1301"
         d="m 26.085128,24.341973 c 1.753496,0 3.175012,-1.421507 3.175012,-3.17504 0,-1.753529 -1.421516,-3.17504 -3.175012,-3.17504 -1.753549,0 -3.175068,1.421511 -3.175068,3.17504 0,1.753533 1.421519,3.17504 3.175068,3.17504"
         style="opacity:0.15;fill:none;fill-opacity:1;fill-rule:evenodd;stroke:none;stroke-width:0.453576" />
      <path
         inkscape:connector-curvature="0"
         d="m 25.135233,19.844 -0.373067,0.373067 0.949867,0.949866 -0.949867,0.949866 0.373067,0.373068 0.949867,-0.949866 0.949866,0.949866 0.373067,-0.373068 -0.949866,-0.949866 0.949866,-0.949866 L 27.034966,19.844 26.0851,20.793866 Z"
         id="path1303"
         style="opacity:1;fill:#ffffff;stroke-width:0.264587" />
    </g>
  </g>
  <metadata
     id="metadata124">
    <rdf:RDF>
      <cc:Work
         rdf:about="">
        <dc:format>image/svg+xml</dc:format>
        <dc:type
           rdf:resource="http://purl.org/dc/dcmitype/StillImage" />
      </cc:Work>
    </rdf:RDF>
  </metadata>
  <sodipodi:namedview
     pagecolor="#ffffff"
     bordercolor="#666666"
     borderopacity="1"
     objecttolerance="10"
     gridtolerance="10"
     guidetolerance="10"
     inkscape:pageopacity="0"
     inkscape:pageshadow="2"
     inkscape:window-width="1920"
     inkscape:window-height="1000"
     id="namedview122"
     showgrid="false"
     inkscape:snap-bbox="true"
     inkscape:bbox-nodes="true"
     inkscape:zoom="1.2067956"
     inkscape:cx="47.232522"
     inkscape:cy="60.905094"
     inkscape:window-x="0"
     inkscape:window-y="44"
     inkscape:window-maximized="1"
     inkscape:current-layer="svg120"
     inkscape:pagecheckerboard="0">
    <inkscape:grid
       type="xygrid"
       id="grid1085" />
  </sodipodi:namedview>
  <defs
     id="defs21">
    <clipPath
       id="clipPath1084">
      <rect
         x="6.35"
         y="262.34"
         width="26.458"
         height="8.4667"
         rx=".086816"
         ry=".077982"
         fill="#ffffff"
         opacity=".15"
         style="paint-order:stroke fill markers"
         id="rect2" />
    </clipPath>
    <filter
       inkscape:collect="always"
       style="color-interpolation-filters:sRGB"
       id="filter1113"
       x="-0.052389949"
       width="1.1047799"
       y="-0.17962349"
       height="1.359247">
      <feGaussianBlur
         inkscape:collect="always"
         stdDeviation="0.55446026"
         id="feGaussianBlur1115" />
    </filter>
    <clipPath
       clipPathUnits="userSpaceOnUse"
       id="clipPath1121">
      <rect
         style="fill:#e6e6e6;stroke-width:0.435626;stroke-linecap:round;stroke-linejoin:round;stroke-miterlimit:2"
         id="rect1123"
         width="26.458666"
         height="8.466773"
         x="6.0849934"
         y="6.6146665" />
    </clipPath>
  </defs>
  <g
     id="thumbnail">
    <g
       id="g1130">
      <rect
         style="fill:#e6e6e6;stroke-width:0.435626;stroke-linecap:round;stroke-linejoin:round;stroke-miterlimit:2"
         id="rect1083"
         width="26.458666"
         height="8.466773"
         x="6.0849934"
         y="6.6146665" />
      <path
         d="m 6.0854923,7.67315 23.8119997,-10e-6 c 0.87948,0 1.5875,0.70803 1.5875,1.5875 v 4.2333 l 1e-6,1.5875 H 6.0849933 v -1.5875 -4.2333 z"
         fill="url(#linearGradient1094)"
         style="fill:#000000;paint-order:stroke fill markers;filter:url(#filter1113);opacity:0.35"
         id="path1087"
         clip-path="url(#clipPath1121)" />
      <path
         d="m 6.0854923,7.67315 23.8119997,-10e-6 c 0.87948,0 1.5875,0.70803 1.5875,1.5875 v 4.2333 l 1e-6,1.5875 H 6.0849933 v -1.5875 -4.2333 z"
         fill="url(#linearGradient1094)"
         style="fill:#ffffff;paint-order:stroke fill markers"
         id="path27" />
      <g
         id="path25"
         clip-path="url(#clipPath1084)"
         transform="translate(-0.26460452,-255.72699)"
         style="opacity:0.15" />
    </g>
    <g
       id="g1273"
       transform="translate(-28.839947,-5.2917297)"
       style="fill:#000000;opacity:0.65">
      <path
         inkscape:connector-curvature="0"
         id="path2-9"
         d="m 42.068808,20.108583 c 1.753497,0 3.175012,-1.42151 3.175012,-3.17504 0,-1.753527 -1.421515,-3.17504 -3.175012,-3.17504 -1.753549,0 -3.175068,1.421513 -3.175068,3.17504 0,1.75353 1.421519,3.17504 3.175068,3.17504"
         style="opacity:0.15;fill:none;fill-opacity:1;fill-rule:evenodd;stroke:none;stroke-width:0.453576" />
      <path
         inkscape:connector-curvature="0"
         d="m 41.010433,17.198135 h 2.116694 v 0.529174 h -2.116694 z"
         id="path8-3"
         style="opacity:1;fill:#000000;stroke-width:0.264587" />
    </g>
    <g
       id="g1269"
       style="fill:#000000;opacity:0.65"
       transform="translate(-21.696107,-15.346028)">
      <path
         inkscape:connector-curvature="0"
         id="path2-5"
         d="m 42.068808,30.162874 c 1.753496,0 3.175012,-1.421511 3.175012,-3.17504 0,-1.753527 -1.421516,-3.17504 -3.175012,-3.17504 -1.753549,0 -3.175068,1.421513 -3.175068,3.17504 0,1.753529 1.421519,3.17504 3.175068,3.17504"
         style="opacity:0.15;fill:none;fill-opacity:1;fill-rule:evenodd;stroke:none;stroke-width:0.453576" />
      <path
         inkscape:connector-curvature="0"
         d="m 41.010433,25.929495 v 2.116693 h 2.116694 v -2.116693 z m 0.529174,0.529173 h 1.058346 v 1.058347 h -1.058346 z"
         id="path8-6"
         style="opacity:1;fill:#000000;stroke-width:0.264587" />
    </g>
    <g
       id="g1277"
       transform="translate(1.4314137,-9.5251197)"
       style="fill:#000000;opacity:0.65">
      <path
         inkscape:connector-curvature="0"
         id="path2-0"
         d="m 26.085128,24.341973 c 1.753496,0 3.175012,-1.421507 3.175012,-3.17504 0,-1.753529 -1.421516,-3.17504 -3.175012,-3.17504 -1.753549,0 -3.175068,1.421511 -3.175068,3.17504 0,1.753533 1.421519,3.17504 3.175068,3.17504"
         style="opacity:0.15;fill:none;fill-opacity:1;fill-rule:evenodd;stroke:none;stroke-width:0.453576" />
      <path
         inkscape:connector-curvature="0"
         d="m 25.135233,19.844 -0.373067,0.373067 0.949867,0.949866 -0.949867,0.949866 0.373067,0.373068 0.949867,-0.949866 0.949866,0.949866 0.373067,-0.373068 -0.949866,-0.949866 0.949866,-0.949866 L 27.034966,19.844 26.0851,20.793866 Z"
         id="path8"
         style="opacity:1;fill:#000000;stroke-width:0.264587" />
    </g>
  </g>
</svg>
