/* XPM */
static char *button_mac_inactive[] = {
/* columns rows colors chars-per-pixel */
"30 34 2 1 ",
"  c None",
". c gray20 s inactive_color_1",
/* pixels */
"                              ",
"                              ",
"                              ",
"            ......            ",
"          ..........          ",
"        ..............        ",
"      ..................      ",
"     ....................     ",
"    ......................    ",
"    ......................    ",
"   ........................   ",
"   ........................   ",
"  ..........................  ",
"  ..........................  ",
" ............................ ",
" ............................ ",
" ............................ ",
" ............................ ",
" ............................ ",
" ............................ ",
"  ..........................  ",
"  ..........................  ",
"   ........................   ",
"   ........................   ",
"    ......................    ",
"    ......................    ",
"     ....................     ",
"      ..................      ",
"        ..............        ",
"          ..........          ",
"            ......            ",
"                              ",
"                              ",
"                              "
};
