/* XPM */
static char *top_left_active[] = {
/* columns rows colors chars-per-pixel */
"8 34 2 1 ",
"  c None",
". c #2C2C2C s active_color_2",
/* pixels */
"     ...",
"   .....",
"  ......",
" .......",
" .......",
"........",
"........",
"........",
"........",
"........",
"........",
"........",
"........",
"........",
"........",
"........",
"........",
"........",
"........",
"........",
"........",
"........",
"........",
"........",
"........",
"........",
"........",
"........",
"........",
"........",
"........",
"........",
"........",
"........"
};
