<svg xmlns="http://www.w3.org/2000/svg" width="32" height="34"><g transform="translate(-251 -565.362)"><path d="M21 585.362h32v34H21z" style="fill:none" transform="translate(230 -20)"/><circle cx="267" cy="582.362" r="10" style="opacity:.15;fill:#fff;fill-opacity:1;stroke-width:9.99997;stroke-linecap:round;stroke-linejoin:round;paint-order:stroke fill markers"/><path d="M262 581.362a1 1 0 0 0-1 1 1 1 0 0 0 1 1 1 1 0 0 0 1-1 1 1 0 0 0-1-1m5 0a1 1 0 0 0-1 1 1 1 0 0 0 1 1 1 1 0 0 0 1-1 1 1 0 0 0-1-1m5 0a1 1 0 0 0-1 1 1 1 0 0 0 1 1 1 1 0 0 0 1-1 1 1 0 0 0-1-1" style="opacity:.75;fill:#fff"/></g></svg>