<svg xmlns="http://www.w3.org/2000/svg" width="32" height="34"><path d="M21 585.362h32v34H21z" style="fill:none;fill-opacity:1;stroke:none;stroke-width:1.27242;stroke-linecap:butt;stroke-linejoin:round;stroke-miterlimit:4;stroke-dasharray:none;stroke-dashoffset:0;stroke-opacity:1" transform="translate(-21 -585.362)"/><path d="M342 581.362a1 1 0 0 0-1 1 1 1 0 0 0 1 1 1 1 0 0 0 1-1 1 1 0 0 0-1-1m5 0a1 1 0 0 0-1 1 1 1 0 0 0 1 1 1 1 0 0 0 1-1 1 1 0 0 0-1-1m5 0a1 1 0 0 0-1 1 1 1 0 0 0 1 1 1 1 0 0 0 1-1 1 1 0 0 0-1-1" style="opacity:.3;fill:#fff" transform="translate(-331 -565.362)"/></svg>