<svg xmlns="http://www.w3.org/2000/svg" width="32" height="34"><g transform="translate(-61 -708.362)"><path d="M21 585.362h32v34H21z" style="fill:none" transform="translate(40 123)"/><circle cx="77" cy="725.362" r="8" style="opacity:1;fill:#38c76a;fill-opacity:1;stroke-width:8;stroke-linecap:round;stroke-linejoin:round;paint-order:stroke fill markers"/><g fill="#363636" style="fill:#fafafa"><path d="M6 6c-1.108 0-2 .892-2 2v2c0 1.108.892 2 2 2h2c1.108 0 2-.892 2-2V8c0-1.108-.892-2-2-2Zm0 1h2c.554 0 1 .446 1 1v2c0 .554-.446 1-1 1H6c-.554 0-1-.446-1-1V8c0-.554.446-1 1-1" style="fill:#fafafa;paint-order:stroke fill markers" transform="translate(69 717.362)"/><path d="M8 4c-1.108 0-2 .892-2 2h1c0-.554.446-1 1-1h2c.554 0 1 .446 1 1v2c0 .554-.446 1-1 1v1c1.108 0 2-.892 2-2V6c0-1.108-.892-2-2-2Z" opacity=".35" style="fill:#fafafa;paint-order:stroke fill markers" transform="translate(69 717.362)"/></g></g></svg>