/* XPM */
static char *button_mac_active[] = {
/* columns rows colors chars-per-pixel */
"45 51 2 1 ",
"  c None",
". c #2C2C2C s active_color_2",
/* pixels */
"                                             ",
"                                             ",
"                                             ",
"                                             ",
"                  .........                  ",
"                  .........                  ",
"               ...............               ",
"            .....................            ",
"            .....................            ",
"         ...........................         ",
"        .............................        ",
"       ...............................       ",
"      .................................      ",
"      .................................      ",
"      .................................      ",
"     ...................................     ",
"     ...................................     ",
"     ...................................     ",
"   .......................................   ",
"   .......................................   ",
"   .......................................   ",
"  .........................................  ",
"  .........................................  ",
"  .........................................  ",
"  .........................................  ",
"  .........................................  ",
"  .........................................  ",
"  .........................................  ",
"  .........................................  ",
"  .........................................  ",
"   .......................................   ",
"   .......................................   ",
"   .......................................   ",
"     ...................................     ",
"     ...................................     ",
"     ...................................     ",
"      .................................      ",
"      .................................      ",
"      .................................      ",
"       ...............................       ",
"        .............................        ",
"         ...........................         ",
"            .....................            ",
"            .....................            ",
"               ...............               ",
"                  .........                  ",
"                  .........                  ",
"                                             ",
"                                             ",
"                                             ",
"                                             "
};
