/* XPM */
static char *top_right_inactive[] = {
/* columns rows colors chars-per-pixel */
"12 51 4 1 ",
"  c None",
". c #323232",
"X c gray20 s inactive_color_1",
"o c #343434",
/* pixels */
"XXXXo       ",
"XXXXXoo     ",
"XXXXXXXo    ",
"XXXXXXXXX   ",
"XXXXXXXXXo  ",
"XXXXXXXXXXo ",
"XXXXXXXXXXo ",
"XXXXXXXXXXXo",
"XXXXXXXXXXXX",
"XXXXXXXXXXXX",
"XXXXXXXXXXXX",
"XXXXXXXXXXXX",
"XXXXXXXXXXXX",
"XXXXXXXXXXXX",
"XXXXXXXXXXXX",
"XXXXXXXXXXXX",
"XXXXXXXXXXXX",
"XXXXXXXXXXXX",
"XXXXXXXXXXXX",
"XXXXXXXXXXXX",
"XXXXXXXXXXXX",
"XXXXXXXXXXXX",
"XXXXXXXXXXXX",
"XXXXXXXXXXXX",
"XXXXXXXXXXXX",
"XXXXXXXXXXXX",
"XXXXXXXXXXXX",
"XXXXXXXXXXXX",
"XXXXXXXXXXXX",
"XXXXXXXXXXXX",
"XXXXXXXXXXXX",
"XXXXXXXXXXXX",
"XXXXXXXXXXXX",
"XXXXXXXXXXXX",
"XXXXXXXXXXXX",
"XXXXXXXXXXXX",
"XXXXXXXXXXXX",
"XXXXXXXXXXXX",
"XXXXXXXXXXXX",
"XXXXXXXXXXXX",
"XXXXXXXXXXXX",
"XXXXXXXXXXXX",
"XXXXXXXXXXXX",
"XXXXXXXXXXXX",
"XXXXXXXXXXXX",
"XXXXXXXXXXXX",
"XXXXXXXXXXXX",
"XXXXXXXXXXXX",
"XXXXXXXXXXXX",
"XXXXXXXXXXXX",
"XXXXXXXXXXXX"
};
