<svg xmlns="http://www.w3.org/2000/svg" width="34" height="36"><path d="M67 583.362h34v36H67z" style="fill:none" transform="translate(-67 -583.362)"/><path d="M84 614.362c6.627 0 12-5.372 12-12 0-6.627-5.373-12-12-12-6.628 0-12 5.373-12 12 0 6.628 5.372 12 12 12" style="opacity:.15;fill:#fff;fill-opacity:1;fill-rule:evenodd;stroke:none;stroke-width:1.71428" transform="translate(-67 -583.362)"/><path d="m80.41 597.362-1.41 1.41 3.59 3.59-3.59 3.59 1.41 1.41 3.59-3.59 3.59 3.59 1.41-1.41-3.59-3.59 3.59-3.59-1.41-1.41-3.59 3.59z" style="fill:#fff;fill-opacity:1" transform="translate(-67 -583.362)"/></svg>